Lora-Regular Italic.ufo
<glyph name="quotesingle" format="1">
  <advance width="408"/>
  <unicode hex="0027"/>
  <outline>
    <contour>
      <point x="173" y="1467" type="line"/>
      <point x="162" y="1006" type="line"/>
      <point x="298" y="1006" type="line"/>
      <point x="345" y="1467" type="line"/>
    </contour>
  </outline>
</glyph>
<glyph name="asterisk" format="1">
  <advance width="1051"/>
  <unicode hex="002A"/>
  <outline>
    <contour>
      <point x="506" y="1467"/>
      <point x="493" y="1383"/>
      <point x="498" y="1318" type="curve" smooth="yes"/>
      <point x="504" y="1226"/>
      <point x="510" y="1121"/>
      <point x="524" y="1041" type="curve"/>
      <point x="457" y="1077"/>
      <point x="364" y="1125"/>
      <point x="282" y="1164" type="curve" smooth="yes"/>
      <point x="223" y="1193"/>
      <point x="141" y="1209"/>
      <point x="115" y="1144" type="curve"/>
      <point x="86" y="1078"/>
      <point x="160" y="1045"/>
      <point x="225" y="1031" type="curve"/>
      <point x="311" y="1015"/>
      <point x="418" y="999"/>
      <point x="502" y="984" type="curve"/>
      <point x="432" y="925"/>
      <point x="364" y="859"/>
      <point x="299" y="791" type="curve" smooth="yes"/>
      <point x="252" y="742"/>
      <point x="205" y="658"/>
      <point x="256" y="621" type="curve" smooth="yes"/>
      <point x="307" y="585"/>
      <point x="368" y="636"/>
      <point x="403" y="693" type="curve"/>
      <point x="450" y="773"/>
      <point x="510" y="871"/>
      <point x="551" y="949" type="curve"/>
      <point x="581" y="871"/>
      <point x="631" y="773"/>
      <point x="670" y="693" type="curve"/>
      <point x="702" y="636"/>
      <point x="749" y="580"/>
      <point x="807" y="619" type="curve" smooth="yes"/>
      <point x="864" y="658"/>
      <point x="825" y="744"/>
      <point x="784" y="791" type="curve" smooth="yes"/>
      <point x="723" y="859"/>
      <point x="656" y="931"/>
      <point x="598" y="984" type="curve"/>
      <point x="684" y="993"/>
      <point x="790" y="1013"/>
      <point x="880" y="1031" type="curve" smooth="yes"/>
      <point x="948" y="1045"/>
      <point x="1021" y="1080"/>
      <point x="1003" y="1146" type="curve" smooth="yes"/>
      <point x="986" y="1211"/>
      <point x="897" y="1193"/>
      <point x="835" y="1164" type="curve" smooth="yes"/>
      <point x="749" y="1123"/>
      <point x="655" y="1081"/>
      <point x="581" y="1041" type="curve"/>
      <point x="605" y="1121"/>
      <point x="621" y="1226"/>
      <point x="637" y="1318" type="curve" smooth="yes"/>
      <point x="648" y="1383"/>
      <point x="645" y="1467"/>
      <point x="575" y="1467" type="curve" smooth="yes"/>
    </contour>
  </outline>
</glyph>
<glyph name="hyphen" format="1">
  <advance width="989"/>
  <unicode hex="002D"/>
  <outline>
    <contour>
      <point x="135" y="723" type="line"/>
      <point x="129" y="588" type="line"/>
      <point x="856" y="596" type="line"/>
      <point x="862" y="723" type="line"/>
    </contour>
  </outline>
</glyph>
<glyph name="period" format="1">
  <advance width="475"/>
  <unicode hex="002E"/>
  <outline>
    <contour>
      <point x="151" y="225"/>
      <point x="92" y="168"/>
      <point x="88" y="96" type="curve" smooth="yes"/>
      <point x="86" y="23"/>
      <point x="135" y="-33"/>
      <point x="199" y="-33" type="curve" smooth="yes"/>
      <point x="260" y="-33"/>
      <point x="319" y="23"/>
      <point x="321" y="96" type="curve" smooth="yes"/>
      <point x="325" y="168"/>
      <point x="280" y="225"/>
      <point x="215" y="225" type="curve" smooth="yes"/>
    </contour>
  </outline>
</glyph>
<glyph name="slash" format="1">
  <advance width="1339"/>
  <unicode hex="002F"/>
  <outline>
    <contour>
      <point x="-37" y="-487" type="line"/>
      <point x="60" y="-555" type="line"/>
      <point x="1356" y="1480" type="line"/>
      <point x="1243" y="1556" type="line"/>
    </contour>
  </outline>
</glyph>
<glyph name="four" format="1">
  <advance width="1079"/>
  <unicode hex="0034"/>
  <outline>
    <contour>
      <point x="776" y="1467" type="line"/>
      <point x="11" y="496" type="line"/>
      <point x="6" y="395" type="line"/>
      <point x="632" y="395" type="line"/>
      <point x="629" y="325" type="line" smooth="yes"/>
      <point x="623" y="176"/>
      <point x="592" y="78"/>
      <point x="453" y="67" type="curve"/>
      <point x="437" y="67" type="line"/>
      <point x="432" y="0" type="line"/>
      <point x="930" y="0" type="line"/>
      <point x="936" y="84" type="line"/>
      <point x="775" y="78" type="line"/>
      <point x="788" y="119"/>
      <point x="791" y="168"/>
      <point x="793" y="223" type="curve" smooth="yes"/>
      <point x="800" y="395" type="line"/>
      <point x="1004" y="395" type="line"/>
      <point x="1010" y="510" type="line"/>
      <point x="805" y="513" type="line"/>
      <point x="846" y="1467" type="line"/>
    </contour>
    <contour>
      <point x="639" y="515" type="line"/>
      <point x="140" y="522" type="line"/>
      <point x="670" y="1182" type="line"/>
      <point x="674" y="1182" type="line"/>
    </contour>
  </outline>
</glyph>
<glyph name="five" format="1">
  <advance width="1071"/>
  <unicode hex="0035"/>
  <outline>
    <contour>
      <point x="937" y="1567" type="line"/>
      <point x="933" y="1474"/>
      <point x="876" y="1434"/>
      <point x="722" y="1434" type="curve" smooth="yes"/>
      <point x="202" y="1434" type="line"/>
      <point x="169" y="778" type="line"/>
      <point x="225" y="727" type="line"/>
      <point x="307" y="778"/>
      <point x="403" y="797"/>
      <point x="472" y="797" type="curve" smooth="yes"/>
      <point x="761" y="797"/>
      <point x="780" y="545"/>
      <point x="773" y="391" type="curve" smooth="yes"/>
      <point x="767" y="217"/>
      <point x="665" y="57"/>
      <point x="466" y="47" type="curve" smooth="yes"/>
      <point x="370" y="43"/>
      <point x="239" y="86"/>
      <point x="237" y="188" type="curve"/>
      <point x="258" y="214"/>
      <point x="266" y="247"/>
      <point x="266" y="272" type="curve" smooth="yes"/>
      <point x="266" y="319"/>
      <point x="231" y="362"/>
      <point x="174" y="362" type="curve" smooth="yes"/>
      <point x="120" y="362"/>
      <point x="78" y="323"/>
      <point x="73" y="263" type="curve" smooth="yes"/>
      <point x="61" y="123"/>
      <point x="192" y="-33"/>
      <point x="454" y="-33" type="curve" smooth="yes"/>
      <point x="720" y="-33"/>
      <point x="958" y="125"/>
      <point x="974" y="428" type="curve" smooth="yes"/>
      <point x="986" y="649"/>
      <point x="876" y="889"/>
      <point x="540" y="889" type="curve" smooth="yes"/>
      <point x="421" y="889"/>
      <point x="323" y="862"/>
      <point x="261" y="836" type="curve"/>
      <point x="286" y="1288" type="line"/>
      <point x="960" y="1302" type="line"/>
      <point x="991" y="1567" type="line"/>
    </contour>
  </outline>
</glyph>
<glyph name="eight" format="1">
  <advance width="1155"/>
  <unicode hex="0038"/>
  <outline>
    <contour>
      <point x="415" y="1467"/>
      <point x="191" y="1352"/>
      <point x="176" y="1094" type="curve" smooth="yes"/>
      <point x="169" y="974"/>
      <point x="260" y="849"/>
      <point x="442" y="739" type="curve"/>
      <point x="272" y="639"/>
      <point x="127" y="490"/>
      <point x="116" y="312" type="curve"/>
      <point x="104" y="54"/>
      <point x="323" y="-33"/>
      <point x="555" y="-33" type="curve" smooth="yes"/>
      <point x="796" y="-33"/>
      <point x="1015" y="83"/>
      <point x="1028" y="341" type="curve" smooth="yes"/>
      <point x="1037" y="520"/>
      <point x="893" y="670"/>
      <point x="718" y="775" type="curve"/>
      <point x="867" y="850"/>
      <point x="1004" y="987"/>
      <point x="1011" y="1141" type="curve" smooth="yes"/>
      <point x="1021" y="1354"/>
      <point x="829" y="1467"/>
      <point x="622" y="1467" type="curve" smooth="yes"/>
    </contour>
    <contour>
      <point x="525" y="693"/>
      <point x="539" y="687"/>
      <point x="553" y="680" type="curve" smooth="yes"/>
      <point x="735" y="592"/>
      <point x="852" y="465"/>
      <point x="839" y="304" type="curve" smooth="yes"/>
      <point x="827" y="155"/>
      <point x="719" y="49"/>
      <point x="563" y="49" type="curve" smooth="yes"/>
      <point x="378" y="49"/>
      <point x="276" y="153"/>
      <point x="286" y="339" type="curve" smooth="yes"/>
      <point x="292" y="442"/>
      <point x="351" y="592"/>
      <point x="512" y="700" type="curve"/>
    </contour>
    <contour>
      <point x="768" y="1387"/>
      <point x="866" y="1292"/>
      <point x="856" y="1118" type="curve" smooth="yes"/>
      <point x="851" y="1023"/>
      <point x="776" y="899"/>
      <point x="646" y="814" type="curve"/>
      <point x="444" y="898"/>
      <point x="349" y="1010"/>
      <point x="356" y="1139" type="curve" smooth="yes"/>
      <point x="363" y="1266"/>
      <point x="461" y="1387"/>
      <point x="622" y="1387" type="curve" smooth="yes"/>
    </contour>
  </outline>
</glyph>
<glyph name="O" format="1">
  <advance width="1614"/>
  <unicode hex="004F"/>
  <outline>
    <contour>
      <point x="391" y="1467"/>
      <point x="100" y="1092"/>
      <point x="100" y="670" type="curve" smooth="yes"/>
      <point x="100" y="338"/>
      <point x="301" y="-33"/>
      <point x="782" y="-33" type="curve" smooth="yes"/>
      <point x="1284" y="-33"/>
      <point x="1528" y="408"/>
      <point x="1528" y="756" type="curve" smooth="yes"/>
      <point x="1528" y="1089"/>
      <point x="1327" y="1467"/>
      <point x="846" y="1467" type="curve" smooth="yes"/>
    </contour>
    <contour>
      <point x="1161" y="1385"/>
      <point x="1332" y="1044"/>
      <point x="1332" y="723" type="curve" smooth="yes"/>
      <point x="1332" y="410"/>
      <point x="1145" y="51"/>
      <point x="792" y="51" type="curve" smooth="yes"/>
      <point x="426" y="51"/>
      <point x="292" y="436"/>
      <point x="296" y="715" type="curve" smooth="yes"/>
      <point x="300" y="1030"/>
      <point x="493" y="1385"/>
      <point x="835" y="1385" type="curve" smooth="yes"/>
    </contour>
    <contour>
      <point x="855" y="1438" type="move" name="top"/>
    </contour>
  </outline>
</glyph>
<glyph name="T" format="1">
  <advance width="1303"/>
  <unicode hex="0054"/>
  <outline>
    <contour>
      <point x="109" y="1434" type="line"/>
      <point x="74" y="1001" type="line"/>
      <point x="150" y="1001" type="line"/>
      <point x="162" y="1243"/>
      <point x="232" y="1355"/>
      <point x="404" y="1356" type="curve" smooth="yes"/>
      <point x="614" y="1357" type="line"/>
      <point x="551" y="319" type="line" smooth="yes"/>
      <point x="543" y="180"/>
      <point x="533" y="74"/>
      <point x="400" y="68" type="curve"/>
      <point x="396" y="0" type="line"/>
      <point x="869" y="0" type="line"/>
      <point x="873" y="90" type="line"/>
      <point x="703" y="82" type="line"/>
      <point x="709" y="117"/>
      <point x="713" y="170"/>
      <point x="717" y="244" type="curve" smooth="yes"/>
      <point x="784" y="1358" type="line"/>
      <point x="959" y="1360" type="line" smooth="yes"/>
      <point x="1170" y="1362"/>
      <point x="1215" y="1243"/>
      <point x="1207" y="1001" type="curve"/>
      <point x="1285" y="1001" type="line"/>
      <point x="1295" y="1434" type="line"/>
    </contour>
    <contour>
      <point x="669" y="719" type="move" name="center"/>
    </contour>
    <contour>
      <point x="656" y="0" type="move" name="bottom"/>
    </contour>
    <contour>
      <point x="724" y="1438" type="move" name="top"/>
    </contour>
  </outline>
</glyph>
<glyph name="X" format="1">
  <advance width="1335"/>
  <unicode hex="0058"/>
  <outline>
    <contour>
      <point x="921" y="1434" type="line"/>
      <point x="917" y="1343" type="line"/>
      <point x="1089" y="1352" type="line"/>
      <point x="1044" y="1313"/>
      <point x="971" y="1212"/>
      <point x="897" y="1114" type="curve" smooth="yes"/>
      <point x="684" y="829" type="line"/>
      <point x="585" y="975"/>
      <point x="494" y="1114"/>
      <point x="448" y="1196" type="curve" smooth="yes"/>
      <point x="405" y="1272"/>
      <point x="356" y="1355"/>
      <point x="504" y="1362" type="curve" smooth="yes"/>
      <point x="594" y="1366" type="line"/>
      <point x="598" y="1434" type="line"/>
      <point x="65" y="1434" type="line"/>
      <point x="61" y="1343" type="line"/>
      <point x="176" y="1348" type="line"/>
      <point x="215" y="1237"/>
      <point x="242" y="1190"/>
      <point x="581" y="693" type="curve"/>
      <point x="297" y="313" type="line" smooth="yes"/>
      <point x="196" y="178"/>
      <point x="135" y="94"/>
      <point x="4" y="68" type="curve"/>
      <point x="0" y="0" type="line"/>
      <point x="401" y="0" type="line"/>
      <point x="405" y="90" type="line"/>
      <point x="235" y="80" type="line"/>
      <point x="305" y="158"/>
      <point x="360" y="240"/>
      <point x="414" y="313" type="curve" smooth="yes"/>
      <point x="489" y="415"/>
      <point x="561" y="516"/>
      <point x="634" y="616" type="curve"/>
      <point x="755" y="441"/>
      <point x="853" y="304"/>
      <point x="909" y="217" type="curve" smooth="yes"/>
      <point x="954" y="147"/>
      <point x="962" y="63"/>
      <point x="817" y="68" type="curve"/>
      <point x="813" y="0" type="line"/>
      <point x="1317" y="0" type="line"/>
      <point x="1321" y="90" type="line"/>
      <point x="1202" y="86" type="line"/>
      <point x="1160" y="154"/>
      <point x="1115" y="216"/>
      <point x="1071" y="276" type="curve" smooth="yes"/>
      <point x="1010" y="359"/>
      <point x="871" y="556"/>
      <point x="736" y="753" type="curve"/>
      <point x="985" y="1081" type="line" smooth="yes"/>
      <point x="1079" y="1204"/>
      <point x="1190" y="1348"/>
      <point x="1321" y="1366" type="curve"/>
      <point x="1325" y="1434" type="line"/>
    </contour>
  </outline>
</glyph>
<glyph name="Y" format="1">
  <advance width="1313"/>
  <unicode hex="0059"/>
  <outline>
    <contour>
      <point x="952" y="1434" type="line"/>
      <point x="948" y="1343" type="line"/>
      <point x="1110" y="1350" type="line"/>
      <point x="1069" y="1307"/>
      <point x="1026" y="1233"/>
      <point x="1003" y="1194" type="curve" smooth="yes"/>
      <point x="905" y="1028"/>
      <point x="819" y="885"/>
      <point x="713" y="698" type="curve"/>
      <point x="709" y="698" type="line"/>
      <point x="600" y="862"/>
      <point x="537" y="981"/>
      <point x="442" y="1143" type="curve" smooth="yes"/>
      <point x="369" y="1274"/>
      <point x="375" y="1366"/>
      <point x="563" y="1366" type="curve"/>
      <point x="567" y="1434" type="line"/>
      <point x="47" y="1434" type="line"/>
      <point x="43" y="1343" type="line"/>
      <point x="170" y="1348" type="line"/>
      <point x="176" y="1296"/>
      <point x="203" y="1225"/>
      <point x="268" y="1116" type="curve" smooth="yes"/>
      <point x="592" y="553" type="line"/>
      <point x="580" y="319" type="line" smooth="yes"/>
      <point x="573" y="180"/>
      <point x="582" y="74"/>
      <point x="428" y="68" type="curve"/>
      <point x="424" y="0" type="line"/>
      <point x="897" y="0" type="line"/>
      <point x="901" y="90" type="line"/>
      <point x="731" y="82" type="line"/>
      <point x="737" y="117"/>
      <point x="743" y="170"/>
      <point x="745" y="244" type="curve" smooth="yes"/>
      <point x="743" y="246"/>
      <point x="762" y="528"/>
      <point x="766" y="614" type="curve"/>
      <point x="854" y="764"/>
      <point x="946" y="926"/>
      <point x="1051" y="1102" type="curve" smooth="yes"/>
      <point x="1155" y="1276"/>
      <point x="1231" y="1358"/>
      <point x="1366" y="1366" type="curve"/>
      <point x="1370" y="1434" type="line"/>
    </contour>
    <contour>
      <point x="736" y="1438" type="move" name="top"/>
    </contour>
  </outline>
</glyph>
<glyph name="bracketleft" format="1">
  <advance width="739"/>
  <unicode hex="005B"/>
  <outline>
    <contour>
      <point x="239" y="1546" type="line"/>
      <point x="94" y="-522" type="line"/>
      <point x="642" y="-522" type="line"/>
      <point x="651" y="-408" type="line"/>
      <point x="240" y="-401" type="line"/>
      <point x="375" y="1425" type="line"/>
      <point x="774" y="1432" type="line"/>
      <point x="782" y="1546" type="line"/>
    </contour>
  </outline>
</glyph>
<glyph name="underscore" format="1">
  <advance width="1454"/>
  <unicode hex="005F"/>
  <outline>
    <contour>
      <point x="49" y="-217" type="line"/>
      <point x="1308" y="-217" type="line"/>
      <point x="1315" y="-111" type="line"/>
      <point x="55" y="-102" type="line"/>
    </contour>
  </outline>
</glyph>
<glyph name="grave" format="1">
  <advance width="492"/>
  <unicode hex="0060"/>
  <outline>
    <contour>
      <point x="96" y="1530"/>
      <point x="68" y="1481"/>
      <point x="139" y="1405" type="curve" smooth="yes"/>
      <point x="350" y="1186" type="line"/>
      <point x="399" y="1227" type="line"/>
      <point x="240" y="1497" type="line" smooth="yes"/>
      <point x="184" y="1591"/>
      <point x="125" y="1559"/>
      <point x="113" y="1546" type="curve" smooth="yes"/>
    </contour>
    <contour>
      <point x="270" y="1048" type="move" name="_top"/>
    </contour>
  </outline>
</glyph>
<glyph name="a" format="1">
  <advance width="1122"/>
  <unicode hex="0061"/>
  <outline>
    <contour>
      <point x="275" y="1047"/>
      <point x="76" y="717"/>
      <point x="76" y="334" type="curve" smooth="yes"/>
      <point x="76" y="76"/>
      <point x="189" y="-23"/>
      <point x="336" y="-23" type="curve" smooth="yes"/>
      <point x="449" y="-23"/>
      <point x="606" y="33"/>
      <point x="736" y="436" type="curve"/>
      <point x="742" y="436" type="line"/>
      <point x="721" y="334"/>
      <point x="705" y="239"/>
      <point x="705" y="162" type="curve" smooth="yes"/>
      <point x="705" y="51"/>
      <point x="746" y="-23"/>
      <point x="856" y="-23" type="curve" smooth="yes"/>
      <point x="1020" y="-23"/>
      <point x="1104" y="170"/>
      <point x="1123" y="266" type="curve"/>
      <point x="1065" y="278" type="line"/>
      <point x="1024" y="133"/>
      <point x="961" y="80"/>
      <point x="916" y="80" type="curve" smooth="yes"/>
      <point x="856" y="80"/>
      <point x="858" y="147"/>
      <point x="858" y="203" type="curve" smooth="yes"/>
      <point x="858" y="336"/>
      <point x="906" y="686"/>
      <point x="949" y="1012" type="curve"/>
      <point x="860" y="1034"/>
      <point x="756" y="1047"/>
      <point x="674" y="1047" type="curve" smooth="yes"/>
    </contour>
    <contour>
      <point x="674" y="973"/>
      <point x="729" y="965"/>
      <point x="770" y="948" type="curve"/>
      <point x="768" y="582"/>
      <point x="568" y="67"/>
      <point x="381" y="67" type="curve" smooth="yes"/>
      <point x="281" y="67"/>
      <point x="248" y="194"/>
      <point x="248" y="368" type="curve" smooth="yes"/>
      <point x="248" y="669"/>
      <point x="363" y="973"/>
      <point x="611" y="973" type="curve" smooth="yes"/>
    </contour>
    <contour>
      <point x="966" y="10" type="move" name="ogonek"/>
    </contour>
    <contour>
      <point x="632" y="1048" type="move" name="top"/>
    </contour>
  </outline>
</glyph>
<glyph name="g" format="1">
  <advance width="1061"/>
  <unicode hex="0067"/>
  <outline>
    <contour>
      <point x="265" y="1047"/>
      <point x="78" y="727"/>
      <point x="78" y="375" type="curve" smooth="yes"/>
      <point x="78" y="147"/>
      <point x="164" y="-23"/>
      <point x="355" y="-23" type="curve" smooth="yes"/>
      <point x="477" y="-23"/>
      <point x="619" y="41"/>
      <point x="733" y="436" type="curve"/>
      <point x="740" y="436" type="line"/>
      <point x="688" y="96"/>
      <point x="736" y="-483"/>
      <point x="346" y="-483" type="curve" smooth="yes"/>
      <point x="297" y="-483"/>
      <point x="231" y="-467"/>
      <point x="205" y="-425" type="curve"/>
      <point x="213" y="-407"/>
      <point x="218" y="-389"/>
      <point x="218" y="-372" type="curve" smooth="yes"/>
      <point x="218" y="-310"/>
      <point x="174" y="-278"/>
      <point x="125" y="-278" type="curve" smooth="yes"/>
      <point x="70" y="-278"/>
      <point x="29" y="-325"/>
      <point x="29" y="-382" type="curve" smooth="yes"/>
      <point x="33" y="-517"/>
      <point x="233" y="-555"/>
      <point x="332" y="-555" type="curve" smooth="yes"/>
      <point x="633" y="-555"/>
      <point x="824" y="-367"/>
      <point x="856" y="29" type="curve" smooth="yes"/>
      <point x="881" y="332"/>
      <point x="916" y="682"/>
      <point x="936" y="1012" type="curve"/>
      <point x="871" y="1034"/>
      <point x="767" y="1047"/>
      <point x="675" y="1047" type="curve" smooth="yes"/>
    </contour>
    <contour>
      <point x="693" y="973"/>
      <point x="742" y="965"/>
      <point x="778" y="946" type="curve"/>
      <point x="760" y="596"/>
      <point x="590" y="74"/>
      <point x="398" y="74" type="curve" smooth="yes"/>
      <point x="287" y="74"/>
      <point x="250" y="221"/>
      <point x="250" y="410" type="curve" smooth="yes"/>
      <point x="250" y="639"/>
      <point x="343" y="973"/>
      <point x="644" y="973" type="curve" smooth="yes"/>
    </contour>
    <contour>
      <point x="603" y="1048" type="move" name="top"/>
    </contour>
  </outline>
</glyph>
<glyph name="m" format="1">
  <advance width="1794"/>
  <unicode hex="006D"/>
  <outline>
    <contour>
      <point x="1246" y="1047"/>
      <point x="1110" y="969"/>
      <point x="975" y="596" type="curve"/>
      <point x="968" y="596" type="line"/>
      <point x="993" y="698"/>
      <point x="1003" y="735"/>
      <point x="1003" y="813" type="curve" smooth="yes"/>
      <point x="1003" y="913"/>
      <point x="949" y="1047"/>
      <point x="785" y="1047" type="curve" smooth="yes"/>
      <point x="672" y="1047"/>
      <point x="538" y="963"/>
      <point x="409" y="590" type="curve"/>
      <point x="403" y="590" type="line"/>
      <point x="430" y="739"/>
      <point x="499" y="1047"/>
      <point x="282" y="1047" type="curve" smooth="yes"/>
      <point x="119" y="1047"/>
      <point x="35" y="854"/>
      <point x="16" y="758" type="curve"/>
      <point x="73" y="746" type="line"/>
      <point x="114" y="891"/>
      <point x="178" y="944"/>
      <point x="223" y="944" type="curve" smooth="yes"/>
      <point x="270" y="944"/>
      <point x="278" y="901"/>
      <point x="278" y="852" type="curve" smooth="yes"/>
      <point x="278" y="791"/>
      <point x="274" y="783"/>
      <point x="237" y="463" type="curve" smooth="yes"/>
      <point x="207" y="205"/>
      <point x="198" y="123"/>
      <point x="198" y="53" type="curve" smooth="yes"/>
      <point x="198" y="31"/>
      <point x="198" y="18"/>
      <point x="200" y="0" type="curve"/>
      <point x="372" y="0" type="line"/>
      <point x="370" y="35"/>
      <point x="368" y="68"/>
      <point x="368" y="109" type="curve" smooth="yes"/>
      <point x="368" y="455"/>
      <point x="555" y="951"/>
      <point x="743" y="951" type="curve" smooth="yes"/>
      <point x="823" y="951"/>
      <point x="839" y="881"/>
      <point x="841" y="834" type="curve" smooth="yes"/>
      <point x="846" y="662"/>
      <point x="768" y="260"/>
      <point x="768" y="53" type="curve" smooth="yes"/>
      <point x="768" y="31"/>
      <point x="768" y="18"/>
      <point x="770" y="0" type="curve"/>
      <point x="942" y="0" type="line"/>
      <point x="940" y="35"/>
      <point x="938" y="68"/>
      <point x="938" y="109" type="curve" smooth="yes"/>
      <point x="938" y="455"/>
      <point x="1120" y="951"/>
      <point x="1313" y="951" type="curve" smooth="yes"/>
      <point x="1392" y="951"/>
      <point x="1411" y="873"/>
      <point x="1411" y="826" type="curve" smooth="yes"/>
      <point x="1411" y="609"/>
      <point x="1337" y="325"/>
      <point x="1337" y="175" type="curve" smooth="yes"/>
      <point x="1337" y="48"/>
      <point x="1372" y="-23"/>
      <point x="1501" y="-23" type="curve" smooth="yes"/>
      <point x="1665" y="-23"/>
      <point x="1751" y="169"/>
      <point x="1769" y="265" type="curve"/>
      <point x="1712" y="278" type="line"/>
      <point x="1671" y="132"/>
      <point x="1605" y="79"/>
      <point x="1560" y="79" type="curve" smooth="yes"/>
      <point x="1511" y="79"/>
      <point x="1505" y="124"/>
      <point x="1505" y="175" type="curve" smooth="yes"/>
      <point x="1505" y="292"/>
      <point x="1573" y="554"/>
      <point x="1573" y="781" type="curve" smooth="yes"/>
      <point x="1573" y="923"/>
      <point x="1522" y="1047"/>
      <point x="1358" y="1047" type="curve" smooth="yes"/>
    </contour>
  </outline>
</glyph>
<glyph name="v" format="1">
  <advance width="1077"/>
  <unicode hex="0076"/>
  <outline>
    <contour>
      <point x="655" y="1047"/>
      <point x="626" y="985"/>
      <point x="626" y="944" type="curve"/>
      <point x="628" y="883"/>
      <point x="676" y="858"/>
      <point x="713" y="858" type="curve" smooth="yes"/>
      <point x="747" y="858"/>
      <point x="778" y="873"/>
      <point x="794" y="909" type="curve"/>
      <point x="931" y="852"/>
      <point x="899" y="567"/>
      <point x="864" y="459" type="curve" smooth="yes"/>
      <point x="802" y="262"/>
      <point x="626" y="90"/>
      <point x="491" y="88" type="curve" smooth="yes"/>
      <point x="393" y="86"/>
      <point x="391" y="178"/>
      <point x="393" y="244" type="curve" smooth="yes"/>
      <point x="397" y="383"/>
      <point x="435" y="687"/>
      <point x="432" y="851" type="curve" smooth="yes"/>
      <point x="429" y="978"/>
      <point x="370" y="1050"/>
      <point x="262" y="1047" type="curve" smooth="yes"/>
      <point x="98" y="1043"/>
      <point x="24" y="851"/>
      <point x="8" y="755" type="curve"/>
      <point x="65" y="742" type="line"/>
      <point x="104" y="888"/>
      <point x="159" y="943"/>
      <point x="204" y="943" type="curve" smooth="yes"/>
      <point x="253" y="943"/>
      <point x="262" y="900"/>
      <point x="262" y="849" type="curve" smooth="yes"/>
      <point x="262" y="732"/>
      <point x="217" y="467"/>
      <point x="221" y="239" type="curve"/>
      <point x="225" y="98"/>
      <point x="284" y="-25"/>
      <point x="454" y="-23" type="curve" smooth="yes"/>
      <point x="665" y="-21"/>
      <point x="860" y="195"/>
      <point x="942" y="412" type="curve" smooth="yes"/>
      <point x="1048" y="694"/>
      <point x="991" y="1047"/>
      <point x="744" y="1047" type="curve" smooth="yes"/>
    </contour>
  </outline>
</glyph>
<glyph name="asciitilde" format="1">
  <advance width="1171"/>
  <unicode hex="007E"/>
  <outline>
    <contour>
      <point x="297" y="758"/>
      <point x="228" y="719"/>
      <point x="133" y="649" type="curve"/>
      <point x="127" y="528" type="line"/>
      <point x="209" y="582"/>
      <point x="273" y="623"/>
      <point x="385" y="623" type="curve" smooth="yes"/>
      <point x="549" y="623"/>
      <point x="578" y="473"/>
      <point x="783" y="473" type="curve" smooth="yes"/>
      <point x="891" y="473"/>
      <point x="977" y="518"/>
      <point x="1041" y="580" type="curve"/>
      <point x="1047" y="700" type="line"/>
      <point x="969" y="637"/>
      <point x="877" y="596"/>
      <point x="778" y="604" type="curve" smooth="yes"/>
      <point x="637" y="616"/>
      <point x="617" y="758"/>
      <point x="406" y="758" type="curve" smooth="yes"/>
    </contour>
  </outline>
</glyph>
<glyph name="sterling" format="1">
  <advance width="1120"/>
  <unicode hex="00A3"/>
  <outline>
    <contour>
      <point x="424" y="1467"/>
      <point x="258" y="1290"/>
      <point x="244" y="1018" type="curve" smooth="yes"/>
      <point x="238" y="903"/>
      <point x="250" y="816"/>
      <point x="266" y="737" type="curve"/>
      <point x="127" y="737" type="line"/>
      <point x="121" y="639" type="line"/>
      <point x="288" y="639" type="line"/>
      <point x="304" y="566"/>
      <point x="316" y="495"/>
      <point x="311" y="408" type="curve" smooth="yes"/>
      <point x="307" y="329"/>
      <point x="279" y="256"/>
      <point x="244" y="207" type="curve"/>
      <point x="141" y="179"/>
      <point x="63" y="116"/>
      <point x="59" y="42" type="curve" smooth="yes"/>
      <point x="57" y="4"/>
      <point x="87" y="-33"/>
      <point x="136" y="-33" type="curve" smooth="yes"/>
      <point x="202" y="-33"/>
      <point x="268" y="49"/>
      <point x="285" y="154" type="curve"/>
      <point x="295" y="156"/>
      <point x="307" y="156"/>
      <point x="317" y="156" type="curve" smooth="yes"/>
      <point x="502" y="156"/>
      <point x="629" y="-33"/>
      <point x="801" y="-33" type="curve" smooth="yes"/>
      <point x="934" y="-33"/>
      <point x="1010" y="82"/>
      <point x="1026" y="246" type="curve"/>
      <point x="963" y="246" type="line"/>
      <point x="950" y="158"/>
      <point x="907" y="117"/>
      <point x="846" y="117" type="curve" smooth="yes"/>
      <point x="754" y="117"/>
      <point x="619" y="232"/>
      <point x="440" y="232" type="curve" smooth="yes"/>
      <point x="401" y="232"/>
      <point x="363" y="229"/>
      <point x="326" y="224" type="curve"/>
      <point x="395" y="302"/>
      <point x="446" y="396"/>
      <point x="451" y="487" type="curve" smooth="yes"/>
      <point x="454" y="540"/>
      <point x="451" y="590"/>
      <point x="446" y="639" type="curve"/>
      <point x="741" y="639" type="line"/>
      <point x="748" y="737" type="line"/>
      <point x="433" y="737" type="line"/>
      <point x="416" y="850"/>
      <point x="393" y="961"/>
      <point x="401" y="1100" type="curve" smooth="yes"/>
      <point x="409" y="1251"/>
      <point x="502" y="1391"/>
      <point x="655" y="1391" type="curve" smooth="yes"/>
      <point x="752" y="1391"/>
      <point x="803" y="1330"/>
      <point x="815" y="1277" type="curve"/>
      <point x="792" y="1255"/>
      <point x="788" y="1225"/>
      <point x="788" y="1203" type="curve" smooth="yes"/>
      <point x="788" y="1174"/>
      <point x="809" y="1123"/>
      <point x="868" y="1125" type="curve" smooth="yes"/>
      <point x="918" y="1126"/>
      <point x="948" y="1165"/>
      <point x="948" y="1220" type="curve" smooth="yes"/>
      <point x="948" y="1310"/>
      <point x="885" y="1467"/>
      <point x="643" y="1467" type="curve" smooth="yes"/>
    </contour>
  </outline>
</glyph>
<glyph name="brokenbar" format="1">
  <advance width="535"/>
  <unicode hex="00A6"/>
  <outline>
    <contour>
      <point x="241" y="1556" type="line"/>
      <point x="208" y="794" type="line"/>
      <point x="337" y="794" type="line"/>
      <point x="385" y="1556" type="line"/>
    </contour>
    <contour>
      <point x="172" y="207" type="line"/>
      <point x="139" y="-555" type="line"/>
      <point x="268" y="-555" type="line"/>
      <point x="315" y="207" type="line"/>
    </contour>
  </outline>
</glyph>
<glyph name="plusminus" format="1">
  <advance width="1163"/>
  <unicode hex="00B1"/>
  <outline>
    <contour>
      <point x="540" y="1057" type="line"/>
      <point x="523" y="731" type="line"/>
      <point x="131" y="733" type="line"/>
      <point x="125" y="618" type="line"/>
      <point x="517" y="619" type="line"/>
      <point x="499" y="276" type="line"/>
      <point x="622" y="276" type="line"/>
      <point x="640" y="620" type="line"/>
      <point x="1036" y="622" type="line"/>
      <point x="1042" y="729" type="line"/>
      <point x="646" y="731" type="line"/>
      <point x="663" y="1057" type="line"/>
    </contour>
    <contour>
      <point x="98" y="102" type="line"/>
      <point x="92" y="0" type="line"/>
      <point x="1003" y="0" type="line"/>
      <point x="1009" y="111" type="line"/>
    </contour>
  </outline>
</glyph>
<glyph name="cedilla" format="1">
  <advance width="600"/>
  <unicode hex="00B8"/>
  <outline>
    <contour>
      <point x="193" y="16" type="line"/>
      <point x="121" y="-205" type="line"/>
      <point x="190" y="-240" type="line"/>
      <point x="250" y="-199"/>
      <point x="354" y="-188"/>
      <point x="354" y="-272" type="curve" smooth="yes"/>
      <point x="354" y="-352"/>
      <point x="231" y="-403"/>
      <point x="92" y="-428" type="curve"/>
      <point x="100" y="-492" type="line"/>
      <point x="242" y="-471"/>
      <point x="492" y="-418"/>
      <point x="506" y="-252" type="curve" smooth="yes"/>
      <point x="512" y="-178"/>
      <point x="461" y="-119"/>
      <point x="371" y="-119" type="curve" smooth="yes"/>
      <point x="324" y="-119"/>
      <point x="272" y="-133"/>
      <point x="233" y="-158" type="curve"/>
      <point x="295" y="16" type="line"/>
    </contour>
    <contour>
      <point x="277" y="0" type="move" name="_bottom"/>
    </contour>
  </outline>
</glyph>
<glyph name="ordmasculine" format="1">
  <advance width="741"/>
  <unicode hex="00BA"/>
  <outline>
    <contour>
      <point x="243" y="1467"/>
      <point x="125" y="1281"/>
      <point x="125" y="1072" type="curve" smooth="yes"/>
      <point x="125" y="910"/>
      <point x="200" y="769"/>
      <point x="370" y="769" type="curve" smooth="yes"/>
      <point x="571" y="769"/>
      <point x="686" y="966"/>
      <point x="686" y="1173" type="curve" smooth="yes"/>
      <point x="686" y="1355"/>
      <point x="581" y="1467"/>
      <point x="442" y="1467" type="curve" smooth="yes"/>
    </contour>
    <contour>
      <point x="540" y="1406"/>
      <point x="565" y="1254"/>
      <point x="563" y="1134" type="curve" smooth="yes"/>
      <point x="559" y="1009"/>
      <point x="514" y="833"/>
      <point x="387" y="833" type="curve" smooth="yes"/>
      <point x="272" y="833"/>
      <point x="246" y="994"/>
      <point x="248" y="1113" type="curve" smooth="yes"/>
      <point x="252" y="1279"/>
      <point x="317" y="1406"/>
      <point x="424" y="1406" type="curve" smooth="yes"/>
    </contour>
  </outline>
</glyph>
<glyph name="guillemotright" format="1">
  <advance width="1067"/>
  <unicode hex="00BB"/>
  <outline>
    <contour>
      <point x="422" y="1070" type="line"/>
      <point x="794" y="572" type="line"/>
      <point x="794" y="568" type="line"/>
      <point x="346" y="40" type="line"/>
      <point x="395" y="-15" type="line"/>
      <point x="997" y="560" type="line"/>
      <point x="997" y="568" type="line"/>
      <point x="481" y="1123" type="line"/>
    </contour>
    <contour>
      <point x="127" y="896" type="line"/>
      <point x="356" y="554" type="line"/>
      <point x="356" y="550" type="line"/>
      <point x="76" y="208" type="line"/>
      <point x="127" y="157" type="line"/>
      <point x="561" y="556" type="line"/>
      <point x="561" y="562" type="line"/>
      <point x="186" y="951" type="line"/>
    </contour>
  </outline>
</glyph>
<glyph name="Icircumflex" format="1">
  <advance width="680"/>
  <unicode hex="00CE"/>
  <outline>
    <contour>
      <point x="160" y="1434" type="line"/>
      <point x="156" y="1343" type="line"/>
      <point x="304" y="1352" type="line"/>
      <point x="297" y="1311"/>
      <point x="291" y="1260"/>
      <point x="289" y="1204" type="curve" smooth="yes"/>
      <point x="242" y="319" type="line"/>
      <point x="236" y="174"/>
      <point x="242" y="74"/>
      <point x="89" y="68" type="curve"/>
      <point x="84" y="0" type="line"/>
      <point x="537" y="0" type="line"/>
      <point x="541" y="90" type="line"/>
      <point x="394" y="82" type="line"/>
      <point x="400" y="117"/>
      <point x="406" y="170"/>
      <point x="408" y="244" type="curve" smooth="yes"/>
      <point x="455" y="1134" type="line" smooth="yes"/>
      <point x="461" y="1280"/>
      <point x="465" y="1360"/>
      <point x="609" y="1366" type="curve"/>
      <point x="613" y="1434" type="line"/>
    </contour>
    <contour>
      <point x="412" y="1905" type="line"/>
      <point x="29" y="1616" type="line"/>
      <point x="62" y="1565" type="line"/>
      <point x="392" y="1741" type="line"/>
      <point x="396" y="1741" type="line"/>
      <point x="729" y="1559" type="line"/>
      <point x="766" y="1616" type="line"/>
      <point x="416" y="1905" type="line"/>
    </contour>
  </outline>
</glyph>
<glyph name="Idieresis" format="1">
  <advance width="682"/>
  <unicode hex="00CF"/>
  <outline>
    <contour>
      <point x="160" y="1434" type="line"/>
      <point x="156" y="1343" type="line"/>
      <point x="304" y="1352" type="line"/>
      <point x="297" y="1311"/>
      <point x="291" y="1260"/>
      <point x="289" y="1204" type="curve" smooth="yes"/>
      <point x="242" y="319" type="line"/>
      <point x="236" y="174"/>
      <point x="242" y="74"/>
      <point x="89" y="68" type="curve"/>
      <point x="84" y="0" type="line"/>
      <point x="537" y="0" type="line"/>
      <point x="541" y="90" type="line"/>
      <point x="394" y="82" type="line"/>
      <point x="400" y="117"/>
      <point x="406" y="170"/>
      <point x="408" y="244" type="curve" smooth="yes"/>
      <point x="455" y="1134" type="line" smooth="yes"/>
      <point x="461" y="1280"/>
      <point x="465" y="1360"/>
      <point x="609" y="1366" type="curve"/>
      <point x="613" y="1434" type="line"/>
    </contour>
    <contour>
      <point x="199" y="1838"/>
      <point x="148" y="1784"/>
      <point x="145" y="1715" type="curve" smooth="yes"/>
      <point x="143" y="1646"/>
      <point x="185" y="1593"/>
      <point x="241" y="1593" type="curve" smooth="yes"/>
      <point x="293" y="1593"/>
      <point x="344" y="1646"/>
      <point x="346" y="1715" type="curve" smooth="yes"/>
      <point x="349" y="1784"/>
      <point x="311" y="1838"/>
      <point x="255" y="1838" type="curve" smooth="yes"/>
    </contour>
    <contour>
      <point x="511" y="1838"/>
      <point x="460" y="1784"/>
      <point x="457" y="1715" type="curve" smooth="yes"/>
      <point x="455" y="1646"/>
      <point x="497" y="1593"/>
      <point x="553" y="1593" type="curve" smooth="yes"/>
      <point x="605" y="1593"/>
      <point x="656" y="1646"/>
      <point x="658" y="1715" type="curve" smooth="yes"/>
      <point x="661" y="1784"/>
      <point x="623" y="1838"/>
      <point x="567" y="1838" type="curve" smooth="yes"/>
    </contour>
  </outline>
</glyph>
<glyph name="Eth" format="1">
  <advance width="1513"/>
  <unicode hex="00D0"/>
  <outline>
    <contour>
      <point x="160" y="1434" type="line"/>
      <point x="154" y="1343" type="line"/>
      <point x="306" y="1352" type="line"/>
      <point x="299" y="1311"/>
      <point x="294" y="1260"/>
      <point x="291" y="1204" type="curve" smooth="yes"/>
      <point x="267" y="772" type="line"/>
      <point x="54" y="772" type="line"/>
      <point x="47" y="672" type="line"/>
      <point x="261" y="674" type="line"/>
      <point x="242" y="319" type="line"/>
      <point x="236" y="174"/>
      <point x="242" y="74"/>
      <point x="89" y="68" type="curve"/>
      <point x="84" y="0" type="line"/>
      <point x="615" y="0" type="line" smooth="yes"/>
      <point x="1158" y="0"/>
      <point x="1425" y="371"/>
      <point x="1425" y="770" type="curve" smooth="yes"/>
      <point x="1425" y="1226"/>
      <point x="1110" y="1438"/>
      <point x="635" y="1436" type="curve" smooth="yes"/>
    </contour>
    <contour>
      <point x="1040" y="1360"/>
      <point x="1234" y="1130"/>
      <point x="1234" y="778" type="curve" smooth="yes"/>
      <point x="1234" y="384"/>
      <point x="984" y="78"/>
      <point x="613" y="78" type="curve" smooth="yes"/>
      <point x="544" y="78"/>
      <point x="484" y="77"/>
      <point x="394" y="82" type="curve"/>
      <point x="400" y="117"/>
      <point x="404" y="168"/>
      <point x="408" y="242" type="curve" smooth="yes"/>
      <point x="431" y="676" type="line"/>
      <point x="693" y="680" type="line"/>
      <point x="699" y="772" type="line"/>
      <point x="436" y="772" type="line"/>
      <point x="455" y="1129" type="line" smooth="yes"/>
      <point x="463" y="1288"/>
      <point x="467" y="1360"/>
      <point x="622" y="1360" type="curve" smooth="yes"/>
    </contour>
  </outline>
</glyph>
<glyph name="Oslash" format="1">
  <advance width="1612"/>
  <unicode hex="00D8"/>
  <outline>
    <contour>
      <point x="1191" y="1383" type="line"/>
      <point x="1097" y="1436"/>
      <point x="982" y="1467"/>
      <point x="844" y="1467" type="curve" smooth="yes"/>
      <point x="389" y="1467"/>
      <point x="98" y="1092"/>
      <point x="98" y="670" type="curve" smooth="yes"/>
      <point x="98" y="455"/>
      <point x="182" y="223"/>
      <point x="373" y="87" type="curve"/>
      <point x="254" y="-102" type="line"/>
      <point x="344" y="-158" type="line"/>
      <point x="466" y="32" type="line"/>
      <point x="554" y="-9"/>
      <point x="658" y="-33"/>
      <point x="780" y="-33" type="curve" smooth="yes"/>
      <point x="1282" y="-33"/>
      <point x="1526" y="408"/>
      <point x="1526" y="756" type="curve" smooth="yes"/>
      <point x="1526" y="956"/>
      <point x="1453" y="1172"/>
      <point x="1291" y="1313" type="curve"/>
      <point x="1397" y="1477" type="line"/>
      <point x="1294" y="1546" type="line"/>
    </contour>
    <contour>
      <point x="949" y="1385"/>
      <point x="1045" y="1342"/>
      <point x="1121" y="1272" type="curve"/>
      <point x="451" y="210" type="line"/>
      <point x="337" y="348"/>
      <point x="291" y="550"/>
      <point x="294" y="715" type="curve"/>
      <point x="298" y="1030"/>
      <point x="491" y="1385"/>
      <point x="833" y="1385" type="curve" smooth="yes"/>
    </contour>
    <contour>
      <point x="1287" y="1050"/>
      <point x="1330" y="884"/>
      <point x="1330" y="723" type="curve" smooth="yes"/>
      <point x="1330" y="410"/>
      <point x="1143" y="51"/>
      <point x="790" y="51" type="curve" smooth="yes"/>
      <point x="686" y="51"/>
      <point x="600" y="82"/>
      <point x="531" y="133" type="curve"/>
      <point x="1203" y="1176" type="line"/>
    </contour>
  </outline>
</glyph>
<glyph name="ccedilla" format="1">
  <advance width="971"/>
  <unicode hex="00E7"/>
  <outline>
    <contour>
      <point x="230" y="1047"/>
      <point x="80" y="694"/>
      <point x="80" y="426" type="curve" smooth="yes"/>
      <point x="80" y="160"/>
      <point x="196" y="17"/>
      <point x="383" y="-15" type="curve"/>
      <point x="322" y="-205" type="line"/>
      <point x="391" y="-240" type="line"/>
      <point x="451" y="-199"/>
      <point x="555" y="-188"/>
      <point x="555" y="-272" type="curve" smooth="yes"/>
      <point x="555" y="-352"/>
      <point x="432" y="-403"/>
      <point x="293" y="-428" type="curve"/>
      <point x="301" y="-492" type="line"/>
      <point x="443" y="-471"/>
      <point x="693" y="-418"/>
      <point x="707" y="-252" type="curve" smooth="yes"/>
      <point x="713" y="-178"/>
      <point x="662" y="-119"/>
      <point x="572" y="-119" type="curve" smooth="yes"/>
      <point x="525" y="-119"/>
      <point x="473" y="-133"/>
      <point x="434" y="-158" type="curve"/>
      <point x="482" y="-23" type="line"/>
      <point x="639" y="-20"/>
      <point x="792" y="67"/>
      <point x="895" y="301" type="curve"/>
      <point x="823" y="335" type="line"/>
      <point x="744" y="140"/>
      <point x="617" y="78"/>
      <point x="510" y="78" type="curve" smooth="yes"/>
      <point x="365" y="78"/>
      <point x="260" y="186"/>
      <point x="260" y="473" type="curve" smooth="yes"/>
      <point x="260" y="690"/>
      <point x="330" y="975"/>
      <point x="567" y="975" type="curve" smooth="yes"/>
      <point x="647" y="975"/>
      <point x="715" y="942"/>
      <point x="729" y="866" type="curve"/>
      <point x="707" y="842"/>
      <point x="703" y="813"/>
      <point x="703" y="789" type="curve" smooth="yes"/>
      <point x="703" y="757"/>
      <point x="726" y="704"/>
      <point x="790" y="706" type="curve" smooth="yes"/>
      <point x="844" y="707"/>
      <point x="877" y="748"/>
      <point x="877" y="807" type="curve" smooth="yes"/>
      <point x="877" y="942"/>
      <point x="746" y="1047"/>
      <point x="570" y="1047" type="curve" smooth="yes"/>
    </contour>
  </outline>
</glyph>
<glyph name="thorn" format="1">
  <advance width="1049"/>
  <unicode hex="00FE"/>
  <outline>
    <contour>
      <point x="342" y="1546" type="line"/>
      <point x="309" y="1518"/>
      <point x="262" y="1491"/>
      <point x="82" y="1491" type="curve"/>
      <point x="73" y="1409" type="line"/>
      <point x="222" y="1417" type="line"/>
      <point x="214" y="1370"/>
      <point x="210" y="1327"/>
      <point x="206" y="1268" type="curve" smooth="yes"/>
      <point x="164" y="717"/>
      <point x="141" y="391"/>
      <point x="102" y="-176" type="curve" smooth="yes"/>
      <point x="92" y="-336"/>
      <point x="92" y="-461"/>
      <point x="-23" y="-461" type="curve"/>
      <point x="-23" y="-522" type="line"/>
      <point x="364" y="-522" type="line"/>
      <point x="364" y="-438" type="line"/>
      <point x="235" y="-444" type="line"/>
      <point x="248" y="-397"/>
      <point x="248" y="-330"/>
      <point x="252" y="-274" type="curve"/>
      <point x="264" y="-15" type="line"/>
      <point x="311" y="-21"/>
      <point x="354" y="-23"/>
      <point x="387" y="-23" type="curve" smooth="yes"/>
      <point x="792" y="-23"/>
      <point x="954" y="291"/>
      <point x="954" y="668" type="curve" smooth="yes"/>
      <point x="954" y="866"/>
      <point x="887" y="1047"/>
      <point x="698" y="1047" type="curve" smooth="yes"/>
      <point x="575" y="1047"/>
      <point x="411" y="1006"/>
      <point x="303" y="610" type="curve"/>
      <point x="297" y="612" type="line"/>
      <point x="317" y="829"/>
      <point x="337" y="1020"/>
      <point x="355" y="1200" type="curve" smooth="yes"/>
      <point x="365" y="1292"/>
      <point x="383" y="1432"/>
      <point x="401" y="1546" type="curve"/>
    </contour>
    <contour>
      <point x="735" y="955"/>
      <point x="774" y="838"/>
      <point x="778" y="651" type="curve" smooth="yes"/>
      <point x="782" y="402"/>
      <point x="721" y="53"/>
      <point x="422" y="49" type="curve" smooth="yes"/>
      <point x="368" y="49"/>
      <point x="297" y="63"/>
      <point x="264" y="96" type="curve"/>
      <point x="272" y="438"/>
      <point x="444" y="942"/>
      <point x="639" y="951" type="curve" smooth="yes"/>
    </contour>
  </outline>
</glyph>
<glyph name="lslash" format="1">
  <advance width="586"/>
  <unicode hex="0142"/>
  <outline>
    <contour>
      <point x="385" y="1546" type="line"/>
      <point x="352" y="1518"/>
      <point x="305" y="1491"/>
      <point x="125" y="1491" type="curve"/>
      <point x="116" y="1409" type="line"/>
      <point x="262" y="1417" type="line"/>
      <point x="256" y="1389"/>
      <point x="254" y="1380"/>
      <point x="243" y="1307" type="curve"/>
      <point x="220" y="1138"/>
      <point x="193" y="912"/>
      <point x="171" y="700" type="curve"/>
      <point x="4" y="584" type="line"/>
      <point x="-2" y="469" type="line"/>
      <point x="160" y="583" type="line"/>
      <point x="141" y="388"/>
      <point x="129" y="220"/>
      <point x="131" y="144" type="curve" smooth="yes"/>
      <point x="133" y="34"/>
      <point x="184" y="-23"/>
      <point x="295" y="-23" type="curve" smooth="yes"/>
      <point x="459" y="-23"/>
      <point x="542" y="169"/>
      <point x="561" y="265" type="curve"/>
      <point x="502" y="278" type="line"/>
      <point x="461" y="132"/>
      <point x="399" y="79"/>
      <point x="354" y="79" type="curve" smooth="yes"/>
      <point x="301" y="79"/>
      <point x="297" y="134"/>
      <point x="297" y="187" type="curve" smooth="yes"/>
      <point x="297" y="293"/>
      <point x="313" y="496"/>
      <point x="333" y="705" type="curve"/>
      <point x="528" y="842" type="line"/>
      <point x="535" y="952" type="line"/>
      <point x="345" y="820" type="line"/>
      <point x="360" y="959"/>
      <point x="375" y="1094"/>
      <point x="389" y="1198" type="curve" smooth="yes"/>
      <point x="401" y="1290"/>
      <point x="428" y="1444"/>
      <point x="444" y="1546" type="curve"/>
    </contour>
  </outline>
</glyph>
<glyph name="OE" format="1">
  <advance width="2073"/>
  <unicode hex="0152"/>
  <outline>
    <contour>
      <point x="363" y="1455"/>
      <point x="121" y="1059"/>
      <point x="101" y="674" type="curve" smooth="yes"/>
      <point x="80" y="266"/>
      <point x="333" y="-33"/>
      <point x="750" y="-33" type="curve" smooth="yes"/>
      <point x="830" y="-33"/>
      <point x="925" y="-23"/>
      <point x="1033" y="0" type="curve"/>
      <point x="1938" y="0" type="line"/>
      <point x="1971" y="399" type="line"/>
      <point x="1901" y="399" type="line"/>
      <point x="1889" y="156"/>
      <point x="1770" y="70"/>
      <point x="1592" y="76" type="curve" smooth="yes"/>
      <point x="1199" y="88" type="line"/>
      <point x="1205" y="123"/>
      <point x="1211" y="174"/>
      <point x="1213" y="248" type="curve"/>
      <point x="1238" y="702" type="line"/>
      <point x="1283" y="709"/>
      <point x="1342" y="711"/>
      <point x="1389" y="711" type="curve" smooth="yes"/>
      <point x="1561" y="711"/>
      <point x="1631" y="711"/>
      <point x="1623" y="530" type="curve"/>
      <point x="1691" y="530" type="line"/>
      <point x="1713" y="977" type="line"/>
      <point x="1645" y="977" type="line"/>
      <point x="1637" y="797"/>
      <point x="1566" y="784"/>
      <point x="1394" y="784" type="curve" smooth="yes"/>
      <point x="1242" y="784" type="line"/>
      <point x="1260" y="1114" type="line" smooth="yes"/>
      <point x="1269" y="1280"/>
      <point x="1275" y="1354"/>
      <point x="1428" y="1358" type="curve" smooth="yes"/>
      <point x="1604" y="1362" type="line" smooth="yes"/>
      <point x="1758" y="1366"/>
      <point x="1879" y="1317"/>
      <point x="1867" y="1075" type="curve"/>
      <point x="1934" y="1075" type="line"/>
      <point x="1942" y="1434" type="line"/>
      <point x="1109" y="1434" type="line"/>
      <point x="1021" y="1450"/>
      <point x="923" y="1469"/>
      <point x="843" y="1467" type="curve" smooth="yes"/>
    </contour>
    <contour>
      <point x="930" y="1381"/>
      <point x="1027" y="1364"/>
      <point x="1103" y="1333" type="curve"/>
      <point x="1038" y="96" type="line"/>
      <point x="954" y="74"/>
      <point x="891" y="64"/>
      <point x="816" y="64" type="curve" smooth="yes"/>
      <point x="464" y="64"/>
      <point x="275" y="317"/>
      <point x="292" y="705" type="curve" smooth="yes"/>
      <point x="310" y="1126"/>
      <point x="560" y="1381"/>
      <point x="851" y="1381" type="curve" smooth="yes"/>
    </contour>
  </outline>
</glyph>
<glyph name="oe" format="1">
  <advance width="1632"/>
  <unicode hex="0153"/>
  <outline>
    <contour>
      <point x="1054" y="1047"/>
      <point x="912" y="931"/>
      <point x="854" y="831" type="curve"/>
      <point x="848" y="831" type="line"/>
      <point x="801" y="966"/>
      <point x="701" y="1045"/>
      <point x="567" y="1047" type="curve" smooth="yes"/>
      <point x="252" y="1051"/>
      <point x="82" y="768"/>
      <point x="82" y="436" type="curve" smooth="yes"/>
      <point x="82" y="182"/>
      <point x="184" y="-23"/>
      <point x="455" y="-23" type="curve" smooth="yes"/>
      <point x="598" y="-23"/>
      <point x="731" y="73"/>
      <point x="799" y="182" type="curve"/>
      <point x="803" y="182" type="line"/>
      <point x="861" y="43"/>
      <point x="981" y="-23"/>
      <point x="1112" y="-23" type="curve" smooth="yes"/>
      <point x="1298" y="-23"/>
      <point x="1443" y="74"/>
      <point x="1558" y="289" type="curve"/>
      <point x="1490" y="327" type="line"/>
      <point x="1400" y="155"/>
      <point x="1252" y="70"/>
      <point x="1136" y="80" type="curve" smooth="yes"/>
      <point x="1025" y="90"/>
      <point x="905" y="189"/>
      <point x="916" y="474" type="curve"/>
      <point x="1206" y="501"/>
      <point x="1511" y="602"/>
      <point x="1511" y="823" type="curve" smooth="yes"/>
      <point x="1511" y="1005"/>
      <point x="1359" y="1047"/>
      <point x="1214" y="1047" type="curve" smooth="yes"/>
    </contour>
    <contour>
      <point x="760" y="967"/>
      <point x="758" y="649"/>
      <point x="754" y="508" type="curve" smooth="yes"/>
      <point x="748" y="281"/>
      <point x="672" y="55"/>
      <point x="473" y="57" type="curve" smooth="yes"/>
      <point x="285" y="59"/>
      <point x="252" y="315"/>
      <point x="256" y="504" type="curve" smooth="yes"/>
      <point x="260" y="766"/>
      <point x="350" y="975"/>
      <point x="533" y="971" type="curve" smooth="yes"/>
    </contour>
    <contour>
      <point x="1281" y="985"/>
      <point x="1348" y="940"/>
      <point x="1348" y="830" type="curve" smooth="yes"/>
      <point x="1348" y="645"/>
      <point x="1110" y="571"/>
      <point x="915" y="544" type="curve"/>
      <point x="928" y="765"/>
      <point x="1043" y="963"/>
      <point x="1184" y="976" type="curve" smooth="yes"/>
    </contour>
  </outline>
</glyph>
<glyph name="caron" format="1">
  <advance width="817"/>
  <unicode hex="02C7"/>
  <outline>
    <contour>
      <point x="588" y="1497"/>
      <point x="485" y="1405"/>
      <point x="393" y="1335" type="curve"/>
      <point x="389" y="1335" type="line"/>
      <point x="139" y="1569" type="line"/>
      <point x="92" y="1518" type="line"/>
      <point x="379" y="1188" type="line"/>
      <point x="383" y="1188" type="line"/>
      <point x="725" y="1524" type="line"/>
      <point x="680" y="1577" type="line"/>
    </contour>
    <contour>
      <point x="391" y="1048" type="move" name="_top"/>
    </contour>
  </outline>
</glyph>
<glyph name="breve" format="1">
  <advance width="737"/>
  <unicode hex="02D8"/>
  <outline>
    <contour>
      <point x="547" y="1417"/>
      <point x="459" y="1356"/>
      <point x="365" y="1356" type="curve" smooth="yes"/>
      <point x="272" y="1356"/>
      <point x="180" y="1421"/>
      <point x="143" y="1497" type="curve"/>
      <point x="92" y="1479" type="line"/>
      <point x="137" y="1317"/>
      <point x="258" y="1245"/>
      <point x="350" y="1245" type="curve" smooth="yes"/>
      <point x="463" y="1245"/>
      <point x="578" y="1319"/>
      <point x="645" y="1483" type="curve"/>
      <point x="598" y="1505" type="line"/>
    </contour>
    <contour>
      <point x="351" y="1048" type="move" name="_top"/>
    </contour>
  </outline>
</glyph>
<glyph name="commaaccent" format="1">
  <advance width="600"/>
  <unicode hex="0326"/>
  <outline>
    <contour>
      <point x="177" y="-147" type="line"/>
      <point x="190" y="-262"/>
      <point x="201" y="-328"/>
      <point x="97" y="-491" type="curve"/>
      <point x="148" y="-531" type="line"/>
      <point x="253" y="-434"/>
      <point x="327" y="-325"/>
      <point x="336" y="-221" type="curve" smooth="yes"/>
      <point x="339" y="-185"/>
      <point x="334" y="-149"/>
      <point x="321" y="-115" type="curve"/>
    </contour>
    <contour>
      <point x="318" y="0" type="move" name="_bottom"/>
    </contour>
  </outline>
</glyph>
<glyph name="Be-cy" format="1">
  <advance width="1268"/>
  <unicode hex="0411"/>
  <outline>
    <contour>
      <point x="437" y="814" type="line"/>
      <point x="455" y="1131" type="line" smooth="yes"/>
      <point x="463" y="1274"/>
      <point x="464" y="1355"/>
      <point x="605" y="1358" type="curve" smooth="yes"/>
      <point x="784" y="1362" type="line" smooth="yes"/>
      <point x="938" y="1365"/>
      <point x="1065" y="1317"/>
      <point x="1053" y="1075" type="curve"/>
      <point x="1120" y="1075" type="line"/>
      <point x="1128" y="1434" type="line"/>
      <point x="156" y="1434" type="line"/>
      <point x="152" y="1343" type="line"/>
      <point x="302" y="1352" type="line"/>
      <point x="295" y="1311"/>
      <point x="289" y="1260"/>
      <point x="287" y="1204" type="curve" smooth="yes"/>
      <point x="242" y="330" type="line" smooth="yes"/>
      <point x="234" y="176"/>
      <point x="240" y="72"/>
      <point x="87" y="68" type="curve"/>
      <point x="82" y="0" type="line"/>
      <point x="674" y="0" type="line" smooth="yes"/>
      <point x="951" y="0"/>
      <point x="1172" y="140"/>
      <point x="1172" y="435" type="curve" smooth="yes"/>
      <point x="1172" y="687"/>
      <point x="1016" y="828"/>
      <point x="608" y="818" type="curve" smooth="yes"/>
    </contour>
    <contour>
      <point x="433" y="735" type="line"/>
      <point x="498" y="739"/>
      <point x="562" y="741"/>
      <point x="644" y="741" type="curve" smooth="yes"/>
      <point x="830" y="741"/>
      <point x="992" y="661"/>
      <point x="981" y="414" type="curve" smooth="yes"/>
      <point x="970" y="184"/>
      <point x="822" y="80"/>
      <point x="611" y="80" type="curve" smooth="yes"/>
      <point x="584" y="80"/>
      <point x="457" y="78"/>
      <point x="394" y="84" type="curve"/>
      <point x="400" y="119"/>
      <point x="404" y="170"/>
      <point x="408" y="244" type="curve" smooth="yes"/>
    </contour>
  </outline>
</glyph>
<glyph name="De-cy" format="1">
  <advance width="1408"/>
  <unicode hex="0414"/>
  <outline>
    <contour>
      <point x="1145" y="81" type="line"/>
      <point x="32" y="81" type="line"/>
      <point x="9" y="-364" type="line"/>
      <point x="94" y="-364" type="line"/>
      <point x="105" y="-130"/>
      <point x="148" y="0"/>
      <point x="283" y="0" type="curve" smooth="yes"/>
      <point x="1060" y="0" type="line" smooth="yes"/>
      <point x="1195" y="0"/>
      <point x="1222" y="-130"/>
      <point x="1211" y="-364" type="curve"/>
      <point x="1296" y="-364" type="line"/>
      <point x="1319" y="90" type="line"/>
    </contour>
    <contour>
      <point x="990" y="319" type="line" smooth="yes"/>
      <point x="982" y="173"/>
      <point x="971" y="87"/>
      <point x="837" y="81" type="curve"/>
      <point x="1142" y="81" type="line"/>
      <point x="1148" y="116"/>
      <point x="1154" y="170"/>
      <point x="1156" y="244" type="curve" smooth="yes"/>
      <point x="1203" y="1134" type="line" smooth="yes"/>
      <point x="1209" y="1280"/>
      <point x="1213" y="1360"/>
      <point x="1357" y="1366" type="curve"/>
      <point x="1361" y="1434" type="line"/>
      <point x="353" y="1434" type="line"/>
      <point x="349" y="1343" type="line"/>
      <point x="1052" y="1352" type="line"/>
      <point x="1045" y="1311"/>
      <point x="1039" y="1260"/>
      <point x="1037" y="1204" type="curve" smooth="yes"/>
    </contour>
    <contour>
      <point x="555" y="1434" type="line"/>
      <point x="488" y="819"/>
      <point x="424" y="437"/>
      <point x="291" y="216" type="curve" smooth="yes"/>
      <point x="218" y="101"/>
      <point x="160" y="81"/>
      <point x="49" y="81" type="curve"/>
      <point x="111" y="0" type="line"/>
      <point x="222" y="0"/>
      <point x="316" y="64"/>
      <point x="389" y="184" type="curve" smooth="yes"/>
      <point x="540" y="445"/>
      <point x="597" y="922"/>
      <point x="658" y="1434" type="curve"/>
    </contour>
    <contour>
      <point x="562" y="1284" type="line"/>
      <point x="634" y="1240" type="line"/>
      <point x="643" y="1304"/>
      <point x="682" y="1347"/>
      <point x="777" y="1349" type="curve"/>
      <point x="578" y="1347" type="line"/>
    </contour>
  </outline>
</glyph>
<glyph name="El-cy" format="1">
  <advance width="1414"/>
  <unicode hex="041B"/>
  <outline>
    <contour>
      <point x="1189" y="1134" type="line" smooth="yes"/>
      <point x="1195" y="1280"/>
      <point x="1199" y="1360"/>
      <point x="1343" y="1366" type="curve"/>
      <point x="1347" y="1434" type="line"/>
      <point x="412" y="1434" type="line"/>
      <point x="408" y="1343" type="line"/>
      <point x="571.246" y="1345.33" type="line"/>
      <point x="538.277" y="455.628"/>
      <point x="359.134" y="58"/>
      <point x="210" y="58" type="curve" smooth="yes"/>
      <point x="198" y="58"/>
      <point x="190" y="61"/>
      <point x="182" y="65" type="curve"/>
      <point x="196" y="79"/>
      <point x="202" y="95"/>
      <point x="202" y="118" type="curve" smooth="yes"/>
      <point x="202" y="172"/>
      <point x="167" y="205"/>
      <point x="111" y="205" type="curve" smooth="yes"/>
      <point x="47.9999" y="205"/>
      <point x="6.9999" y="163"/>
      <point x="2.9999" y="98" type="curve" smooth="yes"/>
      <point x="-3" y="7.99997"/>
      <point x="62.9999" y="-33"/>
      <point x="165" y="-33" type="curve" smooth="yes"/>
      <point x="469.851" y="-33"/>
      <point x="603.308" y="390.238"/>
      <point x="665.133" y="1248.98" type="curve"/>
      <point x="668" y="1311"/>
      <point x="717.044" y="1344.12"/>
      <point x="799.131" y="1348.59" type="curve"/>
      <point x="1038" y="1352" type="line"/>
      <point x="1031" y="1311"/>
      <point x="1025" y="1260"/>
      <point x="1023" y="1204" type="curve" smooth="yes"/>
      <point x="976" y="319" type="line" smooth="yes"/>
      <point x="970" y="174"/>
      <point x="976" y="74"/>
      <point x="823" y="68" type="curve"/>
      <point x="818" y="0" type="line"/>
      <point x="1271" y="0" type="line"/>
      <point x="1275" y="90" type="line"/>
      <point x="1128" y="82" type="line"/>
      <point x="1134" y="117"/>
      <point x="1140" y="170"/>
      <point x="1142" y="244" type="curve" smooth="yes"/>
    </contour>
  </outline>
</glyph>
<glyph name="Pe-cy" format="1">
  <advance width="1543"/>
  <unicode hex="041F"/>
  <outline>
    <contour>
      <point x="1318" y="1141" type="line" smooth="yes"/>
      <point x="1326" y="1287"/>
      <point x="1338" y="1360"/>
      <point x="1472" y="1366" type="curve"/>
      <point x="1476" y="1434" type="line"/>
      <point x="160" y="1434" type="line"/>
      <point x="156" y="1343" type="line"/>
      <point x="304" y="1352" type="line"/>
      <point x="297" y="1311"/>
      <point x="292" y="1260"/>
      <point x="289" y="1204" type="curve" smooth="yes"/>
      <point x="242" y="319" type="line" smooth="yes"/>
      <point x="234" y="174"/>
      <point x="242" y="74"/>
      <point x="89" y="68" type="curve"/>
      <point x="84" y="0" type="line"/>
      <point x="537" y="0" type="line"/>
      <point x="541" y="90" type="line"/>
      <point x="394" y="82" type="line"/>
      <point x="400" y="117"/>
      <point x="404" y="170"/>
      <point x="408" y="244" type="curve" smooth="yes"/>
      <point x="455" y="1119" type="line" smooth="yes"/>
      <point x="462.645" y="1258.52"/>
      <point x="473.943" y="1334.11"/>
      <point x="591.861" y="1345.79" type="curve"/>
      <point x="1167" y="1352" type="line"/>
      <point x="1161" y="1311"/>
      <point x="1155" y="1260"/>
      <point x="1152" y="1204" type="curve" smooth="yes"/>
      <point x="1105" y="319" type="line" smooth="yes"/>
      <point x="1099" y="174"/>
      <point x="1105" y="74"/>
      <point x="952" y="68" type="curve"/>
      <point x="948" y="0" type="line"/>
      <point x="1400" y="0" type="line"/>
      <point x="1404" y="90" type="line"/>
      <point x="1257" y="82" type="line"/>
      <point x="1263" y="117"/>
      <point x="1267" y="170"/>
      <point x="1271" y="244" type="curve" smooth="yes"/>
    </contour>
  </outline>
</glyph>
<glyph name="Yeru-cy" format="1">
  <advance width="1826"/>
  <unicode hex="042B"/>
  <outline>
    <contour>
      <point x="439" y="784" type="line"/>
      <point x="457" y="1134" type="line" smooth="yes"/>
      <point x="463" y="1280"/>
      <point x="465" y="1360"/>
      <point x="609" y="1366" type="curve"/>
      <point x="613" y="1434" type="line"/>
      <point x="160" y="1434" type="line"/>
      <point x="156" y="1343" type="line"/>
      <point x="304" y="1352" type="line"/>
      <point x="297" y="1311"/>
      <point x="291" y="1260"/>
      <point x="289" y="1204" type="curve" smooth="yes"/>
      <point x="244" y="330" type="line" smooth="yes"/>
      <point x="236" y="176"/>
      <point x="242" y="72"/>
      <point x="89" y="68" type="curve"/>
      <point x="84" y="0" type="line"/>
      <point x="656" y="0" type="line" smooth="yes"/>
      <point x="913" y="0"/>
      <point x="1124" y="140"/>
      <point x="1124" y="420" type="curve" smooth="yes"/>
      <point x="1124" y="657"/>
      <point x="968" y="798"/>
      <point x="590" y="788" type="curve" smooth="yes"/>
    </contour>
    <contour>
      <point x="435" y="705" type="line"/>
      <point x="500" y="709"/>
      <point x="554" y="711"/>
      <point x="626" y="711" type="curve" smooth="yes"/>
      <point x="782" y="711"/>
      <point x="944" y="631"/>
      <point x="932" y="399" type="curve" smooth="yes"/>
      <point x="921" y="184"/>
      <point x="774" y="80"/>
      <point x="593" y="80" type="curve" smooth="yes"/>
      <point x="566" y="80"/>
      <point x="459" y="78"/>
      <point x="396" y="84" type="curve"/>
      <point x="402" y="119"/>
      <point x="406" y="170"/>
      <point x="410" y="244" type="curve" smooth="yes"/>
    </contour>
    <component base="I" xOffset="1146"/>
  </outline>
</glyph>
<glyph name="Ia-cy" format="1">
  <advance width="1394"/>
  <unicode hex="042F"/>
  <outline>
    <contour>
      <point x="769" y="598" type="line"/>
      <point x="963" y="600" type="line"/>
      <point x="948" y="320" type="line" smooth="yes"/>
      <point x="941" y="174"/>
      <point x="948" y="74"/>
      <point x="794" y="68" type="curve"/>
      <point x="790" y="0" type="line"/>
      <point x="1251" y="0" type="line"/>
      <point x="1256" y="91" type="line"/>
      <point x="1108" y="82" type="line"/>
      <point x="1115" y="123"/>
      <point x="1120" y="174"/>
      <point x="1122" y="230" type="curve" smooth="yes"/>
      <point x="1169" y="1115" type="line" smooth="yes"/>
      <point x="1176" y="1263"/>
      <point x="1173" y="1362"/>
      <point x="1323" y="1366" type="curve"/>
      <point x="1327" y="1434" type="line"/>
      <point x="779" y="1434" type="line" smooth="yes"/>
      <point x="484" y="1434"/>
      <point x="333" y="1289"/>
      <point x="321" y="1054" type="curve" smooth="yes"/>
      <point x="306" y="771"/>
      <point x="515" y="615"/>
      <point x="769" y="615" type="curve"/>
    </contour>
    <contour>
      <point x="967" y="679" type="line"/>
      <point x="952" y="675"/>
      <point x="888" y="673"/>
      <point x="807" y="673" type="curve" smooth="yes"/>
      <point x="636" y="673"/>
      <point x="501" y="820"/>
      <point x="513" y="1037" type="curve" smooth="yes"/>
      <point x="524" y="1250"/>
      <point x="661" y="1356"/>
      <point x="842" y="1356" type="curve" smooth="yes"/>
      <point x="868" y="1356"/>
      <point x="996" y="1358"/>
      <point x="1009" y="1352" type="curve"/>
      <point x="1002" y="1317"/>
      <point x="998" y="1266"/>
      <point x="994" y="1192" type="curve" smooth="yes"/>
    </contour>
    <contour>
      <point x="770" y="629" type="line"/>
      <point x="658" y="628" type="line"/>
      <point x="581" y="626"/>
      <point x="502" y="576"/>
      <point x="447" y="499" type="curve" smooth="yes"/>
      <point x="275" y="262" type="line" smooth="yes"/>
      <point x="182" y="133"/>
      <point x="137" y="68"/>
      <point x="22" y="68" type="curve"/>
      <point x="18" y="0" type="line"/>
      <point x="251" y="0" type="line"/>
      <point x="314" y="31"/>
      <point x="391" y="137"/>
      <point x="453" y="227" type="curve" smooth="yes"/>
      <point x="618" y="462" type="line" smooth="yes"/>
      <point x="651" y="509"/>
      <point x="706" y="563"/>
      <point x="769" y="598" type="curve"/>
    </contour>
  </outline>
</glyph>
<glyph name="zhe-cy" format="1">
  <advance width="1735"/>
  <unicode hex="0436"/>
  <outline>
    <contour>
      <point x="599" y="498" type="line"/>
      <point x="1113" y="499" type="line"/>
      <point x="1113" y="557" type="line"/>
      <point x="600" y="557" type="line"/>
    </contour>
    <contour>
      <point x="1662" y="942"/>
      <point x="1573" y="1047"/>
      <point x="1433" y="1047" type="curve" smooth="yes"/>
      <point x="1206" y="1047"/>
      <point x="1079" y="764"/>
      <point x="1073" y="426" type="curve" smooth="yes"/>
      <point x="1068" y="139"/>
      <point x="1168" y="-23"/>
      <point x="1351" y="-23" type="curve" smooth="yes"/>
      <point x="1481" y="-23"/>
      <point x="1564" y="64"/>
      <point x="1661" y="301" type="curve"/>
      <point x="1592" y="335" type="line"/>
      <point x="1521" y="140"/>
      <point x="1463" y="56"/>
      <point x="1377" y="56" type="curve" smooth="yes"/>
      <point x="1292" y="56"/>
      <point x="1226" y="172"/>
      <point x="1231" y="473" type="curve" smooth="yes"/>
      <point x="1235" y="690"/>
      <point x="1297" y="971"/>
      <point x="1432" y="971" type="curve" smooth="yes"/>
      <point x="1492" y="971"/>
      <point x="1518" y="926"/>
      <point x="1518" y="866" type="curve"/>
      <point x="1495" y="844"/>
      <point x="1487" y="820"/>
      <point x="1487" y="783" type="curve" smooth="yes"/>
      <point x="1487" y="739"/>
      <point x="1514" y="701"/>
      <point x="1572" y="702" type="curve" smooth="yes"/>
      <point x="1620" y="703"/>
      <point x="1658" y="742"/>
      <point x="1659" y="807" type="curve" smooth="yes"/>
    </contour>
    <contour>
      <point x="813" y="1047" type="line"/>
      <point x="817" y="1006"/>
      <point x="819" y="968"/>
      <point x="820" y="935" type="curve" smooth="yes"/>
      <point x="823" y="780"/>
      <point x="798" y="634"/>
      <point x="780" y="473" type="curve" smooth="yes"/>
      <point x="752" y="215"/>
      <point x="748" y="123"/>
      <point x="748" y="53" type="curve" smooth="yes"/>
      <point x="748" y="31"/>
      <point x="748" y="18"/>
      <point x="750" y="0" type="curve"/>
      <point x="920" y="0" type="line"/>
      <point x="916" y="41"/>
      <point x="914" y="79"/>
      <point x="913" y="112" type="curve" smooth="yes"/>
      <point x="907" y="336"/>
      <point x="980" y="761"/>
      <point x="980" y="994" type="curve" smooth="yes"/>
      <point x="980" y="1016"/>
      <point x="980" y="1029"/>
      <point x="978" y="1047" type="curve"/>
    </contour>
    <contour>
      <point x="39" y="82"/>
      <point x="150" y="-23"/>
      <point x="265" y="-23" type="curve" smooth="yes"/>
      <point x="492" y="-23"/>
      <point x="639" y="260"/>
      <point x="654" y="598" type="curve" smooth="yes"/>
      <point x="667" y="885"/>
      <point x="557" y="1046"/>
      <point x="406" y="1047" type="curve" smooth="yes"/>
      <point x="284" y="1048"/>
      <point x="199" y="994"/>
      <point x="94" y="757" type="curve"/>
      <point x="155" y="723" type="line"/>
      <point x="226" y="900"/>
      <point x="287" y="946"/>
      <point x="363" y="946" type="curve" smooth="yes"/>
      <point x="447" y="946"/>
      <point x="510" y="838"/>
      <point x="495" y="551" type="curve" smooth="yes"/>
      <point x="484" y="334"/>
      <point x="415" y="55"/>
      <point x="278" y="55" type="curve" smooth="yes"/>
      <point x="225" y="55"/>
      <point x="194" y="82"/>
      <point x="184" y="158" type="curve"/>
      <point x="209" y="180"/>
      <point x="221" y="204"/>
      <point x="222" y="241" type="curve" smooth="yes"/>
      <point x="223" y="285"/>
      <point x="194" y="323"/>
      <point x="136" y="322" type="curve" smooth="yes"/>
      <point x="88" y="321"/>
      <point x="49" y="282"/>
      <point x="46" y="217" type="curve" smooth="yes"/>
    </contour>
  </outline>
</glyph>
<glyph name="em-cy" format="1">
  <advance width="1602"/>
  <unicode hex="043C"/>
  <outline>
    <contour>
      <point x="542" y="973" type="line"/>
      <point x="379" y="321"/>
      <point x="264" y="72"/>
      <point x="171" y="78" type="curve"/>
      <point x="173" y="86"/>
      <point x="174" y="94"/>
      <point x="174" y="108" type="curve" smooth="yes"/>
      <point x="174" y="155"/>
      <point x="130" y="189"/>
      <point x="86" y="189" type="curve" smooth="yes"/>
      <point x="30" y="189"/>
      <point x="-8" y="141"/>
      <point x="-8" y="90" type="curve" smooth="yes"/>
      <point x="-8" y="30"/>
      <point x="48" y="-20"/>
      <point x="125" y="-20" type="curve" smooth="yes"/>
      <point x="358" y="-20"/>
      <point x="435" y="254"/>
      <point x="612" y="876" type="curve"/>
      <point x="635" y="876" type="line"/>
      <point x="682" y="973" type="line"/>
    </contour>
    <contour>
      <point x="1250" y="1024" type="line"/>
      <point x="1250" y="876" type="line"/>
      <point x="1262" y="876" type="line"/>
      <point x="1232" y="651"/>
      <point x="1152" y="303"/>
      <point x="1152" y="162" type="curve" smooth="yes"/>
      <point x="1152" y="51"/>
      <point x="1199" y="-23"/>
      <point x="1304" y="-23" type="curve" smooth="yes"/>
      <point x="1474" y="-23"/>
      <point x="1558" y="170"/>
      <point x="1576" y="266" type="curve"/>
      <point x="1519" y="278" type="line"/>
      <point x="1478" y="133"/>
      <point x="1414" y="82"/>
      <point x="1367" y="82" type="curve" smooth="yes"/>
      <point x="1326" y="82"/>
      <point x="1314" y="123"/>
      <point x="1314" y="172" type="curve" smooth="yes"/>
      <point x="1314" y="299"/>
      <point x="1404" y="815"/>
      <point x="1404" y="971" type="curve" smooth="yes"/>
      <point x="1404" y="993"/>
      <point x="1404" y="1006"/>
      <point x="1402" y="1024" type="curve"/>
    </contour>
    <contour>
      <point x="358" y="1024" type="line"/>
      <point x="350" y="942" type="line"/>
      <point x="659" y="945" type="line"/>
      <point x="656" y="1024" type="line"/>
    </contour>
    <contour>
      <point x="1258" y="876" type="line"/>
      <point x="1283" y="1024" type="line"/>
      <point x="1215" y="1024" type="line"/>
      <point x="979" y="334"/>
      <point x="850" y="87"/>
      <point x="800" y="87" type="curve" smooth="yes"/>
      <point x="775" y="87"/>
      <point x="772" y="114"/>
      <point x="768" y="204" type="curve" smooth="yes"/>
      <point x="758" y="454"/>
      <point x="770" y="701"/>
      <point x="770" y="955" type="curve" smooth="yes"/>
      <point x="770" y="978"/>
      <point x="768" y="1001"/>
      <point x="764" y="1024" type="curve"/>
      <point x="610" y="1024" type="line"/>
      <point x="616" y="876" type="line"/>
      <point x="628" y="876" type="line"/>
      <point x="608" y="754"/>
      <point x="606" y="417"/>
      <point x="606" y="224" type="curve" smooth="yes"/>
      <point x="606" y="43"/>
      <point x="641" y="-23"/>
      <point x="739" y="-23" type="curve" smooth="yes"/>
      <point x="907" y="-23"/>
      <point x="1003" y="186"/>
      <point x="1249" y="876" type="curve"/>
    </contour>
  </outline>
</glyph>
<glyph name="gheupturn-cy" format="1">
  <advance width="891"/>
  <unicode hex="0491"/>
  <outline>
    <contour>
      <point x="879" y="942" type="line"/>
      <point x="904" y="1251" type="line"/>
      <point x="826" y="1251" type="line"/>
      <point x="813" y="1079"/>
      <point x="756" y="1024"/>
      <point x="535" y="1024" type="curve"/>
      <point x="531" y="942" type="line"/>
    </contour>
    <contour>
      <point x="535" y="1024" type="line"/>
      <point x="114" y="1024" type="line"/>
      <point x="109" y="940" type="line"/>
      <point x="238" y="946" type="line"/>
      <point x="227" y="899"/>
      <point x="225" y="862"/>
      <point x="223" y="807" type="curve" smooth="yes"/>
      <point x="216" y="686" type="line"/>
      <point x="198" y="311" type="line" smooth="yes"/>
      <point x="187" y="164"/>
      <point x="185" y="61"/>
      <point x="60" y="61" type="curve"/>
      <point x="57" y="0" type="line"/>
      <point x="475" y="0" type="line"/>
      <point x="480" y="84" type="line"/>
      <point x="350" y="78" type="line"/>
      <point x="361" y="125"/>
      <point x="363" y="162"/>
      <point x="366" y="217" type="curve" smooth="yes"/>
      <point x="394" y="713" type="line" smooth="yes"/>
      <point x="401" y="860"/>
      <point x="411" y="942"/>
      <point x="531" y="942" type="curve" smooth="yes"/>
    </contour>
  </outline>
</glyph>
<glyph name="dagger" format="1">
  <advance width="1044"/>
  <unicode hex="2020"/>
  <outline>
    <contour>
      <point x="502" y="1556"/>
      <point x="479" y="1472"/>
      <point x="482" y="1407" type="curve" smooth="yes"/>
      <point x="488" y="1255"/>
      <point x="508" y="1067"/>
      <point x="525" y="944" type="curve"/>
      <point x="426" y="965"/>
      <point x="324" y="980"/>
      <point x="226" y="993" type="curve" smooth="yes"/>
      <point x="160" y="1001"/>
      <point x="72" y="1004"/>
      <point x="72" y="928" type="curve" smooth="yes"/>
      <point x="72" y="852"/>
      <point x="152" y="854"/>
      <point x="217" y="862" type="curve" smooth="yes"/>
      <point x="319" y="876"/>
      <point x="420" y="891"/>
      <point x="522" y="911" type="curve"/>
      <point x="484" y="760"/>
      <point x="455" y="648"/>
      <point x="422" y="573" type="curve"/>
      <point x="451" y="213"/>
      <point x="436" y="-176"/>
      <point x="439" y="-555" type="curve"/>
      <point x="496" y="-555" type="line"/>
      <point x="539" y="-176"/>
      <point x="561" y="213"/>
      <point x="627" y="573" type="curve"/>
      <point x="601" y="648"/>
      <point x="585" y="759"/>
      <point x="562" y="911" type="curve"/>
      <point x="660" y="891"/>
      <point x="762" y="876"/>
      <point x="860" y="862" type="curve"/>
      <point x="926" y="854"/>
      <point x="1014" y="852"/>
      <point x="1014" y="928" type="curve" smooth="yes"/>
      <point x="1014" y="1008"/>
      <point x="934" y="1001"/>
      <point x="869" y="993" type="curve" smooth="yes"/>
      <point x="766" y="980"/>
      <point x="665" y="965"/>
      <point x="562" y="944" type="curve"/>
      <point x="591" y="1067"/>
      <point x="632" y="1255"/>
      <point x="654" y="1407" type="curve" smooth="yes"/>
      <point x="664" y="1472"/>
      <point x="654" y="1556"/>
      <point x="578" y="1556" type="curve" smooth="yes"/>
    </contour>
  </outline>
</glyph>
<glyph name="bullet" format="1">
  <advance width="797"/>
  <unicode hex="2022"/>
  <outline>
    <contour>
      <point x="252" y="1069"/>
      <point x="108" y="936"/>
      <point x="100" y="766" type="curve" smooth="yes"/>
      <point x="90" y="596"/>
      <point x="221" y="463"/>
      <point x="391" y="463" type="curve" smooth="yes"/>
      <point x="561" y="463"/>
      <point x="706" y="596"/>
      <point x="717" y="766" type="curve" smooth="yes"/>
      <point x="725" y="936"/>
      <point x="592" y="1069"/>
      <point x="422" y="1069" type="curve" smooth="yes"/>
    </contour>
  </outline>
</glyph>
<glyph name="fraction" format="1">
  <advance width="930"/>
  <unicode hex="2044"/>
  <outline>
    <contour>
      <point x="-78" y="14" type="line"/>
      <point x="-15" y="-33" type="line"/>
      <point x="1020" y="1412" type="line"/>
      <point x="948" y="1467" type="line"/>
    </contour>
  </outline>
</glyph>
<glyph name="trademark" format="1">
  <advance width="2130"/>
  <unicode hex="2122"/>
  <outline>
    <contour>
      <point x="1788" y="1434" type="line"/>
      <point x="1706" y="1251"/>
      <point x="1618" y="1094"/>
      <point x="1542" y="926" type="curve" smooth="yes"/>
      <point x="1524" y="885"/>
      <point x="1491" y="817"/>
      <point x="1469" y="770" type="curve"/>
      <point x="1467" y="770" type="line"/>
      <point x="1438" y="848"/>
      <point x="1411" y="930"/>
      <point x="1389" y="995" type="curve" smooth="yes"/>
      <point x="1241" y="1434" type="line"/>
      <point x="987" y="1434" type="line"/>
      <point x="983" y="1352" type="line"/>
      <point x="1071" y="1357" type="line"/>
      <point x="1068" y="1344"/>
      <point x="1066" y="1323"/>
      <point x="1063" y="1288" type="curve" smooth="yes"/>
      <point x="1018" y="825" type="line" smooth="yes"/>
      <point x="1010" y="741"/>
      <point x="992" y="684"/>
      <point x="910" y="682" type="curve"/>
      <point x="905" y="625" type="line"/>
      <point x="1194" y="625" type="line"/>
      <point x="1198" y="694" type="line"/>
      <point x="1098" y="688" type="line"/>
      <point x="1106" y="711"/>
      <point x="1108" y="739"/>
      <point x="1112" y="774" type="curve"/>
      <point x="1148" y="1167" type="line"/>
      <point x="1157" y="1297" type="line"/>
      <point x="1159" y="1297" type="line"/>
      <point x="1228" y="1070"/>
      <point x="1315" y="839"/>
      <point x="1401" y="612" type="curve"/>
      <point x="1487" y="612" type="line"/>
      <point x="1743" y="1145" type="line" smooth="yes"/>
      <point x="1762" y="1185"/>
      <point x="1780" y="1226"/>
      <point x="1797" y="1274" type="curve"/>
      <point x="1799" y="1274" type="line"/>
      <point x="1797" y="1224"/>
      <point x="1794" y="1179"/>
      <point x="1795" y="1134" type="curve" smooth="yes"/>
      <point x="1800" y="829" type="line" smooth="yes"/>
      <point x="1801" y="743"/>
      <point x="1780" y="682"/>
      <point x="1698" y="680" type="curve"/>
      <point x="1694" y="623" type="line"/>
      <point x="2018" y="623" type="line"/>
      <point x="2022" y="694" type="line"/>
      <point x="1922" y="689" type="line"/>
      <point x="1924" y="716"/>
      <point x="1925" y="760"/>
      <point x="1924" y="791" type="curve" smooth="yes"/>
      <point x="1917" y="1221" type="line" smooth="yes"/>
      <point x="1915" y="1307"/>
      <point x="1929" y="1364"/>
      <point x="2009" y="1366" type="curve"/>
      <point x="2013" y="1434" type="line"/>
    </contour>
    <contour>
      <point x="176" y="1434" type="line"/>
      <point x="156" y="1163" type="line"/>
      <point x="217" y="1163" type="line"/>
      <point x="223" y="1286"/>
      <point x="261" y="1354"/>
      <point x="344" y="1355" type="curve" smooth="yes"/>
      <point x="471" y="1356" type="line"/>
      <point x="443" y="805" type="line" smooth="yes"/>
      <point x="439" y="731"/>
      <point x="420" y="678"/>
      <point x="342" y="678" type="curve"/>
      <point x="338" y="621" type="line"/>
      <point x="658" y="621" type="line"/>
      <point x="662" y="694" type="line"/>
      <point x="568" y="690" type="line"/>
      <point x="572" y="713"/>
      <point x="572" y="743"/>
      <point x="574" y="774" type="curve" smooth="yes"/>
      <point x="605" y="1357" type="line"/>
      <point x="695" y="1358" type="line" smooth="yes"/>
      <point x="813" y="1359"/>
      <point x="840" y="1296"/>
      <point x="838" y="1163" type="curve"/>
      <point x="899" y="1163" type="line"/>
      <point x="905" y="1434" type="line"/>
    </contour>
  </outline>
</glyph>
<glyph name="uni2206" format="1">
  <advance width="1619"/>
  <unicode hex="2206"/>
  <outline>
    <contour>
      <point x="745" y="1473" type="line"/>
      <point x="74" y="61" type="line"/>
      <point x="74" y="0" type="line"/>
      <point x="195" y="0" type="line"/>
      <point x="733" y="1174" type="line"/>
      <point x="737" y="1174" type="line"/>
      <point x="1314" y="0" type="line"/>
      <point x="1494" y="0" type="line"/>
      <point x="1494" y="61" type="line"/>
      <point x="794" y="1473" type="line"/>
    </contour>
    <contour>
      <point x="115" y="109" type="line"/>
      <point x="115" y="0" type="line"/>
      <point x="1392" y="0" type="line"/>
      <point x="1392" y="109" type="line"/>
    </contour>
  </outline>
</glyph>
<glyph name="summation" format="1">
  <advance width="1325"/>
  <unicode hex="2211"/>
  <outline>
    <contour>
      <point x="115" y="1434" type="line"/>
      <point x="111" y="1343" type="line"/>
      <point x="206" y="1348" type="line"/>
      <point x="209" y="1322"/>
      <point x="222" y="1286"/>
      <point x="251" y="1227" type="curve" smooth="yes"/>
      <point x="633" y="428" type="line"/>
      <point x="181" y="-299" type="line" smooth="yes"/>
      <point x="146" y="-354"/>
      <point x="85" y="-434"/>
      <point x="33" y="-432" type="curve"/>
      <point x="29" y="-522" type="line"/>
      <point x="1148" y="-522" type="line"/>
      <point x="1180" y="-123" type="line"/>
      <point x="1111" y="-123" type="line"/>
      <point x="1098" y="-364"/>
      <point x="980" y="-450"/>
      <point x="803" y="-446" type="curve" smooth="yes"/>
      <point x="801" y="-446"/>
      <point x="802" y="-446"/>
      <point x="186" y="-440" type="curve"/>
      <point x="224" y="-396"/>
      <point x="260" y="-341"/>
      <point x="298" y="-280" type="curve" smooth="yes"/>
      <point x="779" y="506" type="line"/>
      <point x="425" y="1264" type="line" smooth="yes"/>
      <point x="411" y="1294"/>
      <point x="394" y="1324"/>
      <point x="376" y="1352" type="curve"/>
      <point x="861" y="1362" type="line" smooth="yes"/>
      <point x="1014" y="1365"/>
      <point x="1133" y="1317"/>
      <point x="1121" y="1075" type="curve"/>
      <point x="1189" y="1075" type="line"/>
      <point x="1197" y="1434" type="line"/>
    </contour>
  </outline>
</glyph>
<glyph name="minus" format="1">
  <advance width="1196"/>
  <unicode hex="2212"/>
  <outline>
    <contour>
      <point x="137" y="522" type="line"/>
      <point x="1048" y="526" type="line"/>
      <point x="1054" y="651" type="line"/>
      <point x="143" y="655" type="line"/>
    </contour>
  </outline>
</glyph>
<glyph name="integral" format="1">
  <advance width="799"/>
  <unicode hex="222B"/>
  <outline>
    <contour>
      <point x="454" y="1556"/>
      <point x="356" y="1356"/>
      <point x="342" y="1087" type="curve" smooth="yes"/>
      <point x="278" y="-208" type="line" smooth="yes"/>
      <point x="270" y="-372"/>
      <point x="220" y="-463"/>
      <point x="141" y="-471" type="curve" smooth="yes"/>
      <point x="116" y="-474"/>
      <point x="82" y="-469"/>
      <point x="70" y="-460" type="curve"/>
      <point x="73" y="-397"/>
      <point x="40" y="-351"/>
      <point x="-16" y="-350" type="curve" smooth="yes"/>
      <point x="-81" y="-348"/>
      <point x="-104" y="-406"/>
      <point x="-104" y="-439" type="curve" smooth="yes"/>
      <point x="-104" y="-512"/>
      <point x="-44" y="-555"/>
      <point x="63" y="-555" type="curve" smooth="yes"/>
      <point x="330" y="-555"/>
      <point x="434" y="-354"/>
      <point x="446" y="-85" type="curve" smooth="yes"/>
      <point x="510" y="1212" type="line" smooth="yes"/>
      <point x="519" y="1392"/>
      <point x="549" y="1464"/>
      <point x="649" y="1474" type="curve" smooth="yes"/>
      <point x="674" y="1476"/>
      <point x="701" y="1472"/>
      <point x="713" y="1463" type="curve"/>
      <point x="710" y="1400"/>
      <point x="743" y="1354"/>
      <point x="799" y="1353" type="curve" smooth="yes"/>
      <point x="864" y="1351"/>
      <point x="887" y="1409"/>
      <point x="887" y="1442" type="curve" smooth="yes"/>
      <point x="887" y="1515"/>
      <point x="827" y="1556"/>
      <point x="720" y="1556" type="curve" smooth="yes"/>
    </contour>
  </outline>
</glyph>
<glyph name="cyrBreve" format="1">
  <advance width="760"/>
  <unicode hex="F6D1"/>
  <outline>
    <contour>
      <point x="695" y="1765" type="line"/>
      <point x="667" y="1704"/>
      <point x="630" y="1654"/>
      <point x="593" y="1630" type="curve" smooth="yes"/>
      <point x="559" y="1608"/>
      <point x="514" y="1603"/>
      <point x="468" y="1603" type="curve" smooth="yes"/>
      <point x="410" y="1603"/>
      <point x="376" y="1616"/>
      <point x="346" y="1645" type="curve"/>
      <point x="367" y="1668"/>
      <point x="376" y="1697"/>
      <point x="378" y="1718" type="curve"/>
      <point x="379" y="1755"/>
      <point x="358" y="1811"/>
      <point x="285" y="1809" type="curve" smooth="yes"/>
      <point x="233" y="1808"/>
      <point x="183" y="1778"/>
      <point x="177" y="1705" type="curve" smooth="yes"/>
      <point x="166" y="1584"/>
      <point x="294" y="1524"/>
      <point x="428" y="1524" type="curve" smooth="yes"/>
      <point x="560" y="1524"/>
      <point x="678" y="1583"/>
      <point x="777" y="1708" type="curve"/>
    </contour>
    <contour>
      <point x="420" y="1434" type="move" name="top"/>
    </contour>
  </outline>
</glyph>
<glyph name="fi" format="1">
  <advance width="1317"/>
  <unicode hex="FB01"/>
  <outline>
    <contour>
      <point x="410" y="1548"/>
      <point x="287" y="1325"/>
      <point x="244" y="1059" type="curve" smooth="yes"/>
      <point x="238" y="1024" type="line"/>
      <point x="60" y="1024" type="line"/>
      <point x="50" y="936" type="line"/>
      <point x="228" y="938" type="line"/>
      <point x="192" y="627"/>
      <point x="179" y="159"/>
      <point x="142" y="-141" type="curve" smooth="yes"/>
      <point x="118" y="-340"/>
      <point x="74" y="-475"/>
      <point x="-30" y="-475" type="curve" smooth="yes"/>
      <point x="-55" y="-475"/>
      <point x="-78" y="-470"/>
      <point x="-93" y="-459" type="curve"/>
      <point x="-93" y="-404"/>
      <point x="-123" y="-366"/>
      <point x="-173" y="-365" type="curve" smooth="yes"/>
      <point x="-234" y="-363"/>
      <point x="-256" y="-418"/>
      <point x="-256" y="-449" type="curve" smooth="yes"/>
      <point x="-256" y="-518"/>
      <point x="-201" y="-555"/>
      <point x="-96" y="-555" type="curve" smooth="yes"/>
      <point x="238" y="-555"/>
      <point x="312" y="-166"/>
      <point x="340" y="225" type="curve" smooth="yes"/>
      <point x="390" y="940" type="line"/>
      <point x="680" y="944" type="line"/>
      <point x="686" y="1024" type="line"/>
      <point x="396" y="1024" type="line"/>
      <point x="398" y="1049" type="line" smooth="yes"/>
      <point x="426" y="1460"/>
      <point x="580" y="1489"/>
      <point x="691" y="1493" type="curve" smooth="yes"/>
      <point x="789" y="1497"/>
      <point x="891" y="1446"/>
      <point x="908" y="1376" type="curve"/>
      <point x="897" y="1350"/>
      <point x="892" y="1323"/>
      <point x="895" y="1300" type="curve" smooth="yes"/>
      <point x="900" y="1264"/>
      <point x="928" y="1230"/>
      <point x="977" y="1226" type="curve" smooth="yes"/>
      <point x="1024" y="1222"/>
      <point x="1071" y="1257"/>
      <point x="1074" y="1319" type="curve" smooth="yes"/>
      <point x="1079" y="1440"/>
      <point x="917" y="1555"/>
      <point x="721" y="1556" type="curve"/>
    </contour>
    <contour>
      <point x="764" y="1047"/>
      <point x="689" y="854"/>
      <point x="670" y="758" type="curve"/>
      <point x="727" y="746" type="line"/>
      <point x="768" y="891"/>
      <point x="832" y="944"/>
      <point x="877" y="944" type="curve" smooth="yes"/>
      <point x="924" y="944"/>
      <point x="934" y="887"/>
      <point x="934" y="852" type="curve" smooth="yes"/>
      <point x="934" y="619"/>
      <point x="854" y="407"/>
      <point x="854" y="170" type="curve" smooth="yes"/>
      <point x="854" y="43"/>
      <point x="914" y="-23"/>
      <point x="1039" y="-23" type="curve" smooth="yes"/>
      <point x="1192" y="-23"/>
      <point x="1268" y="151"/>
      <point x="1293" y="266" type="curve"/>
      <point x="1235" y="278" type="line"/>
      <point x="1194" y="133"/>
      <point x="1131" y="80"/>
      <point x="1086" y="80" type="curve" smooth="yes"/>
      <point x="1041" y="80"/>
      <point x="1022" y="110"/>
      <point x="1022" y="166" type="curve" smooth="yes"/>
      <point x="1022" y="395"/>
      <point x="1100" y="670"/>
      <point x="1100" y="834" type="curve" smooth="yes"/>
      <point x="1100" y="961"/>
      <point x="1043" y="1047"/>
      <point x="928" y="1047" type="curve" smooth="yes"/>
    </contour>
  </outline>
</glyph>
<glyph name="Caron" format="1">
  <advance width="961"/>
  <outline>
    <contour>
      <point x="898" y="1883" type="line"/>
      <point x="866" y="1936" type="line"/>
      <point x="747" y="1869"/>
      <point x="630" y="1793"/>
      <point x="507" y="1736" type="curve"/>
      <point x="503" y="1736" type="line"/>
      <point x="388" y="1795"/>
      <point x="276" y="1867"/>
      <point x="161" y="1932" type="curve"/>
      <point x="122" y="1871" type="line"/>
      <point x="497" y="1578" type="line"/>
      <point x="501" y="1578" type="line"/>
    </contour>
  </outline>
</glyph>
<glyph name="Dieresis" format="1">
  <advance width="721"/>
  <outline>
    <contour>
      <point x="293" y="1646"/>
      <point x="242" y="1593"/>
      <point x="190" y="1593" type="curve" smooth="yes"/>
      <point x="134" y="1593"/>
      <point x="92" y="1646"/>
      <point x="94" y="1715" type="curve" smooth="yes"/>
      <point x="97" y="1784"/>
      <point x="148" y="1838"/>
      <point x="204" y="1838" type="curve" smooth="yes"/>
      <point x="260" y="1838"/>
      <point x="298" y="1784"/>
      <point x="295" y="1715" type="curve" smooth="yes"/>
    </contour>
    <contour>
      <point x="624" y="1646"/>
      <point x="573" y="1593"/>
      <point x="521" y="1593" type="curve" smooth="yes"/>
      <point x="465" y="1593"/>
      <point x="423" y="1646"/>
      <point x="425" y="1715" type="curve" smooth="yes"/>
      <point x="428" y="1784"/>
      <point x="479" y="1838"/>
      <point x="535" y="1838" type="curve" smooth="yes"/>
      <point x="591" y="1838"/>
      <point x="629" y="1784"/>
      <point x="626" y="1715" type="curve" smooth="yes"/>
    </contour>
  </outline>
</glyph>
<glyph name="hungarumlaut.case" format="1">
  <advance width="776"/>
  <outline>
    <contour>
      <point x="766" y="1950"/>
      <point x="718" y="1959"/>
      <point x="637" y="1886" type="curve" smooth="yes"/>
      <point x="393" y="1674" type="line"/>
      <point x="427" y="1624" type="line"/>
      <point x="717" y="1788" type="line" smooth="yes"/>
      <point x="798" y="1832"/>
      <point x="807" y="1875"/>
      <point x="789" y="1908" type="curve" smooth="yes"/>
    </contour>
    <contour>
      <point x="382" y="1980"/>
      <point x="327" y="1961"/>
      <point x="279" y="1887" type="curve" smooth="yes"/>
      <point x="133" y="1660" type="line"/>
      <point x="182" y="1620" type="line"/>
      <point x="378" y="1812" type="line" smooth="yes"/>
      <point x="441" y="1874"/>
      <point x="446" y="1911"/>
      <point x="418" y="1942" type="curve" smooth="yes"/>
    </contour>
    <contour>
      <point x="307" y="1434" type="move" name="_top"/>
    </contour>
  </outline>
</glyph>
<glyph name="zhe-cy.ss01" format="1">
  <advance width="1547"/>
  <outline>
    <contour>
      <point x="549" y="498" type="line"/>
      <point x="944" y="499" type="line" smooth="yes"/>
      <point x="1042" y="499"/>
      <point x="1084" y="438"/>
      <point x="1100" y="246" type="curve" smooth="yes"/>
      <point x="1118" y="31"/>
      <point x="1174" y="-23"/>
      <point x="1268" y="-23" type="curve" smooth="yes"/>
      <point x="1406" y="-23"/>
      <point x="1475" y="93"/>
      <point x="1500" y="208" type="curve"/>
      <point x="1442" y="220" type="line"/>
      <point x="1418" y="118"/>
      <point x="1385" y="89"/>
      <point x="1341" y="93" type="curve" smooth="yes"/>
      <point x="1283" y="99"/>
      <point x="1270" y="154"/>
      <point x="1255" y="297" type="curve" smooth="yes"/>
      <point x="1241" y="433"/>
      <point x="1175" y="541"/>
      <point x="1000" y="541" type="curve"/>
      <point x="1000" y="557" type="line"/>
      <point x="550" y="557" type="line"/>
    </contour>
    <contour>
      <point x="849" y="520" type="line"/>
      <point x="996" y="520" type="line"/>
      <point x="1068" y="532"/>
      <point x="1134" y="611"/>
      <point x="1175" y="722" type="curve" smooth="yes"/>
      <point x="1220" y="845"/>
      <point x="1244" y="891"/>
      <point x="1283" y="915" type="curve"/>
      <point x="1290" y="861"/>
      <point x="1329" y="830"/>
      <point x="1397" y="830" type="curve" smooth="yes"/>
      <point x="1457" y="830"/>
      <point x="1492" y="879"/>
      <point x="1492" y="933" type="curve" smooth="yes"/>
      <point x="1492" y="998"/>
      <point x="1451" y="1047"/>
      <point x="1370" y="1047" type="curve" smooth="yes"/>
      <point x="1247" y="1047"/>
      <point x="1174" y="949"/>
      <point x="1092" y="730" type="curve" smooth="yes"/>
      <point x="1048" y="613"/>
      <point x="989" y="557"/>
      <point x="849" y="557" type="curve"/>
    </contour>
    <contour>
      <point x="574" y="541" type="line"/>
      <point x="420" y="541"/>
      <point x="359" y="482"/>
      <point x="292" y="263" type="curve" smooth="yes"/>
      <point x="247" y="117"/>
      <point x="218" y="99"/>
      <point x="180" y="93" type="curve" smooth="yes"/>
      <point x="138" y="86"/>
      <point x="85" y="118"/>
      <point x="71" y="220" type="curve"/>
      <point x="13" y="208" type="line"/>
      <point x="26" y="93"/>
      <point x="83" y="-23"/>
      <point x="210" y="-23" type="curve" smooth="yes"/>
      <point x="315" y="-23"/>
      <point x="379" y="10"/>
      <point x="430" y="202" type="curve" smooth="yes"/>
      <point x="496" y="450"/>
      <point x="525" y="498"/>
      <point x="574" y="498" type="curve"/>
    </contour>
    <contour>
      <point x="728" y="1047" type="line"/>
      <point x="732" y="1006"/>
      <point x="734" y="968"/>
      <point x="735" y="935" type="curve" smooth="yes"/>
      <point x="738" y="780"/>
      <point x="713" y="634"/>
      <point x="695" y="473" type="curve" smooth="yes"/>
      <point x="667" y="215"/>
      <point x="663" y="123"/>
      <point x="663" y="53" type="curve" smooth="yes"/>
      <point x="663" y="31"/>
      <point x="663" y="18"/>
      <point x="665" y="0" type="curve"/>
      <point x="835" y="0" type="line"/>
      <point x="831" y="41"/>
      <point x="829" y="79"/>
      <point x="828" y="112" type="curve" smooth="yes"/>
      <point x="822" y="336"/>
      <point x="895" y="761"/>
      <point x="895" y="994" type="curve" smooth="yes"/>
      <point x="895" y="1016"/>
      <point x="895" y="1029"/>
      <point x="893" y="1047" type="curve"/>
    </contour>
    <contour>
      <point x="558" y="557"/>
      <point x="499" y="607"/>
      <point x="474" y="727" type="curve" smooth="yes"/>
      <point x="434" y="921"/>
      <point x="428" y="1023"/>
      <point x="312" y="1044" type="curve" smooth="yes"/>
      <point x="232" y="1059"/>
      <point x="168" y="1023"/>
      <point x="148" y="957" type="curve" smooth="yes"/>
      <point x="129" y="905"/>
      <point x="148" y="841"/>
      <point x="207" y="831" type="curve" smooth="yes"/>
      <point x="275" y="819"/>
      <point x="320" y="853"/>
      <point x="345" y="904" type="curve"/>
      <point x="369" y="875"/>
      <point x="377" y="826"/>
      <point x="397" y="720" type="curve" smooth="yes"/>
      <point x="419" y="602"/>
      <point x="464" y="532"/>
      <point x="540" y="532" type="curve"/>
      <point x="681" y="530" type="line"/>
      <point x="698" y="557" type="line"/>
    </contour>
  </outline>
</glyph>
